<svg xmlns="http://www.w3.org/2000/svg" viewBox="0 0 512 512" width="512" height="512">
<defs>
<radialGradient id="bg" cx="50%" cy="38%" r="70%"><stop offset="0" stop-color="#1a1f2b"/><stop offset=".55" stop-color="#0b0d13"/><stop offset="1" stop-color="#030305"/></radialGradient>
<linearGradient id="haze" x1="0" y1="0" x2="0" y2="1"><stop offset="0" stop-color="#32c7d6" stop-opacity=".16"/><stop offset=".5" stop-color="#32c7d6" stop-opacity="0"/><stop offset="1" stop-color="#e8c66a" stop-opacity=".14"/></linearGradient>
<filter id="glow" x="-30%" y="-30%" width="160%" height="160%"><feGaussianBlur stdDeviation="5" result="b"/><feMerge><feMergeNode in="b"/><feMergeNode in="SourceGraphic"/></feMerge></filter>
<filter id="soft" x="-30%" y="-30%" width="160%" height="160%"><feGaussianBlur stdDeviation="2.2" result="b"/><feMerge><feMergeNode in="b"/><feMergeNode in="b"/><feMergeNode in="SourceGraphic"/></feMerge></filter>
<clipPath id="clip"><polygon points="434.4,339.0 256.0,442.0 77.6,339.0 77.6,133.0 256.0,30.0 434.4,133.0"/></clipPath>
<style>.g{fill:#0d1018;stroke:#e8c66a;stroke-width:4.5;stroke-linejoin:round;stroke-linecap:round}.s{fill:none;stroke:#e8c66a;stroke-width:4.5;stroke-linejoin:round;stroke-linecap:round}.f{fill:#e8c66a;stroke:none}.d{fill:none;stroke:#e8c66a;stroke-width:2;opacity:.55;stroke-linecap:round}</style>
</defs>
<g clip-path="url(#clip)">
<rect width="512" height="512" fill="url(#bg)"/>
<rect width="512" height="512" fill="url(#haze)"/>
<g opacity=".5"><line x1="0" y1="6" x2="512" y2="6" stroke="#ffffff" stroke-width="1" opacity=".035"/><line x1="0" y1="12" x2="512" y2="12" stroke="#ffffff" stroke-width="1" opacity=".035"/><line x1="0" y1="18" x2="512" y2="18" stroke="#ffffff" stroke-width="1" opacity=".035"/><line x1="0" y1="24" x2="512" y2="24" stroke="#ffffff" stroke-width="1" opacity=".035"/><line x1="0" y1="30" x2="512" y2="30" stroke="#ffffff" stroke-width="1" opacity=".035"/><line x1="0" y1="36" x2="512" y2="36" stroke="#ffffff" stroke-width="1" opacity=".035"/><line x1="0" y1="42" x2="512" y2="42" stroke="#ffffff" stroke-width="1" opacity=".035"/><line x1="0" y1="48" x2="512" y2="48" stroke="#ffffff" stroke-width="1" opacity=".035"/><line x1="0" y1="54" x2="512" y2="54" stroke="#ffffff" stroke-width="1" opacity=".035"/><line x1="0" y1="60" x2="512" y2="60" stroke="#ffffff" stroke-width="1" opacity=".035"/><line x1="0" y1="66" x2="512" y2="66" stroke="#ffffff" stroke-width="1" opacity=".035"/><line x1="0" y1="72" x2="512" y2="72" stroke="#ffffff" stroke-width="1" opacity=".035"/><line x1="0" y1="78" x2="512" y2="78" stroke="#ffffff" stroke-width="1" opacity=".035"/><line x1="0" y1="84" x2="512" y2="84" stroke="#ffffff" stroke-width="1" opacity=".035"/><line x1="0" y1="90" x2="512" y2="90" stroke="#ffffff" stroke-width="1" opacity=".035"/><line x1="0" y1="96" x2="512" y2="96" stroke="#ffffff" stroke-width="1" opacity=".035"/><line x1="0" y1="102" x2="512" y2="102" stroke="#ffffff" stroke-width="1" opacity=".035"/><line x1="0" y1="108" x2="512" y2="108" stroke="#ffffff" stroke-width="1" opacity=".035"/><line x1="0" y1="114" x2="512" y2="114" stroke="#ffffff" stroke-width="1" opacity=".035"/><line x1="0" y1="120" x2="512" y2="120" stroke="#ffffff" stroke-width="1" opacity=".035"/><line x1="0" y1="126" x2="512" y2="126" stroke="#ffffff" stroke-width="1" opacity=".035"/><line x1="0" y1="132" x2="512" y2="132" stroke="#ffffff" stroke-width="1" opacity=".035"/><line x1="0" y1="138" x2="512" y2="138" stroke="#ffffff" stroke-width="1" opacity=".035"/><line x1="0" y1="144" x2="512" y2="144" stroke="#ffffff" stroke-width="1" opacity=".035"/><line x1="0" y1="150" x2="512" y2="150" stroke="#ffffff" stroke-width="1" opacity=".035"/><line x1="0" y1="156" x2="512" y2="156" stroke="#ffffff" stroke-width="1" opacity=".035"/><line x1="0" y1="162" x2="512" y2="162" stroke="#ffffff" stroke-width="1" opacity=".035"/><line x1="0" y1="168" x2="512" y2="168" stroke="#ffffff" stroke-width="1" opacity=".035"/><line x1="0" y1="174" x2="512" y2="174" stroke="#ffffff" stroke-width="1" opacity=".035"/><line x1="0" y1="180" x2="512" y2="180" stroke="#ffffff" stroke-width="1" opacity=".035"/><line x1="0" y1="186" x2="512" y2="186" stroke="#ffffff" stroke-width="1" opacity=".035"/><line x1="0" y1="192" x2="512" y2="192" stroke="#ffffff" stroke-width="1" opacity=".035"/><line x1="0" y1="198" x2="512" y2="198" stroke="#ffffff" stroke-width="1" opacity=".035"/><line x1="0" y1="204" x2="512" y2="204" stroke="#ffffff" stroke-width="1" opacity=".035"/><line x1="0" y1="210" x2="512" y2="210" stroke="#ffffff" stroke-width="1" opacity=".035"/><line x1="0" y1="216" x2="512" y2="216" stroke="#ffffff" stroke-width="1" opacity=".035"/><line x1="0" y1="222" x2="512" y2="222" stroke="#ffffff" stroke-width="1" opacity=".035"/><line x1="0" y1="228" x2="512" y2="228" stroke="#ffffff" stroke-width="1" opacity=".035"/><line x1="0" y1="234" x2="512" y2="234" stroke="#ffffff" stroke-width="1" opacity=".035"/><line x1="0" y1="240" x2="512" y2="240" stroke="#ffffff" stroke-width="1" opacity=".035"/><line x1="0" y1="246" x2="512" y2="246" stroke="#ffffff" stroke-width="1" opacity=".035"/><line x1="0" y1="252" x2="512" y2="252" stroke="#ffffff" stroke-width="1" opacity=".035"/><line x1="0" y1="258" x2="512" y2="258" stroke="#ffffff" stroke-width="1" opacity=".035"/><line x1="0" y1="264" x2="512" y2="264" stroke="#ffffff" stroke-width="1" opacity=".035"/><line x1="0" y1="270" x2="512" y2="270" stroke="#ffffff" stroke-width="1" opacity=".035"/><line x1="0" y1="276" x2="512" y2="276" stroke="#ffffff" stroke-width="1" opacity=".035"/><line x1="0" y1="282" x2="512" y2="282" stroke="#ffffff" stroke-width="1" opacity=".035"/><line x1="0" y1="288" x2="512" y2="288" stroke="#ffffff" stroke-width="1" opacity=".035"/><line x1="0" y1="294" x2="512" y2="294" stroke="#ffffff" stroke-width="1" opacity=".035"/><line x1="0" y1="300" x2="512" y2="300" stroke="#ffffff" stroke-width="1" opacity=".035"/><line x1="0" y1="306" x2="512" y2="306" stroke="#ffffff" stroke-width="1" opacity=".035"/><line x1="0" y1="312" x2="512" y2="312" stroke="#ffffff" stroke-width="1" opacity=".035"/><line x1="0" y1="318" x2="512" y2="318" stroke="#ffffff" stroke-width="1" opacity=".035"/><line x1="0" y1="324" x2="512" y2="324" stroke="#ffffff" stroke-width="1" opacity=".035"/><line x1="0" y1="330" x2="512" y2="330" stroke="#ffffff" stroke-width="1" opacity=".035"/><line x1="0" y1="336" x2="512" y2="336" stroke="#ffffff" stroke-width="1" opacity=".035"/><line x1="0" y1="342" x2="512" y2="342" stroke="#ffffff" stroke-width="1" opacity=".035"/><line x1="0" y1="348" x2="512" y2="348" stroke="#ffffff" stroke-width="1" opacity=".035"/><line x1="0" y1="354" x2="512" y2="354" stroke="#ffffff" stroke-width="1" opacity=".035"/><line x1="0" y1="360" x2="512" y2="360" stroke="#ffffff" stroke-width="1" opacity=".035"/><line x1="0" y1="366" x2="512" y2="366" stroke="#ffffff" stroke-width="1" opacity=".035"/><line x1="0" y1="372" x2="512" y2="372" stroke="#ffffff" stroke-width="1" opacity=".035"/><line x1="0" y1="378" x2="512" y2="378" stroke="#ffffff" stroke-width="1" opacity=".035"/><line x1="0" y1="384" x2="512" y2="384" stroke="#ffffff" stroke-width="1" opacity=".035"/><line x1="0" y1="390" x2="512" y2="390" stroke="#ffffff" stroke-width="1" opacity=".035"/><line x1="0" y1="396" x2="512" y2="396" stroke="#ffffff" stroke-width="1" opacity=".035"/><line x1="0" y1="402" x2="512" y2="402" stroke="#ffffff" stroke-width="1" opacity=".035"/><line x1="0" y1="408" x2="512" y2="408" stroke="#ffffff" stroke-width="1" opacity=".035"/><line x1="0" y1="414" x2="512" y2="414" stroke="#ffffff" stroke-width="1" opacity=".035"/><line x1="0" y1="420" x2="512" y2="420" stroke="#ffffff" stroke-width="1" opacity=".035"/><line x1="0" y1="426" x2="512" y2="426" stroke="#ffffff" stroke-width="1" opacity=".035"/><line x1="0" y1="432" x2="512" y2="432" stroke="#ffffff" stroke-width="1" opacity=".035"/><line x1="0" y1="438" x2="512" y2="438" stroke="#ffffff" stroke-width="1" opacity=".035"/><line x1="0" y1="444" x2="512" y2="444" stroke="#ffffff" stroke-width="1" opacity=".035"/><line x1="0" y1="450" x2="512" y2="450" stroke="#ffffff" stroke-width="1" opacity=".035"/><line x1="0" y1="456" x2="512" y2="456" stroke="#ffffff" stroke-width="1" opacity=".035"/><line x1="0" y1="462" x2="512" y2="462" stroke="#ffffff" stroke-width="1" opacity=".035"/><line x1="0" y1="468" x2="512" y2="468" stroke="#ffffff" stroke-width="1" opacity=".035"/><line x1="0" y1="474" x2="512" y2="474" stroke="#ffffff" stroke-width="1" opacity=".035"/><line x1="0" y1="480" x2="512" y2="480" stroke="#ffffff" stroke-width="1" opacity=".035"/><line x1="0" y1="486" x2="512" y2="486" stroke="#ffffff" stroke-width="1" opacity=".035"/><line x1="0" y1="492" x2="512" y2="492" stroke="#ffffff" stroke-width="1" opacity=".035"/><line x1="0" y1="498" x2="512" y2="498" stroke="#ffffff" stroke-width="1" opacity=".035"/><line x1="0" y1="504" x2="512" y2="504" stroke="#ffffff" stroke-width="1" opacity=".035"/><line x1="0" y1="510" x2="512" y2="510" stroke="#ffffff" stroke-width="1" opacity=".035"/></g>
<line x1="16.4" y1="328.3" x2="8.0" y2="358.3" stroke="#9fb6c8" stroke-width="1.4" opacity="0.06"/><line x1="388.9" y1="502.2" x2="373.5" y2="557.2" stroke="#9fb6c8" stroke-width="1.4" opacity="0.16"/><line x1="455.4" y1="246.4" x2="447.2" y2="275.6" stroke="#9fb6c8" stroke-width="1.4" opacity="0.12"/><line x1="71.0" y1="226.0" x2="62.5" y2="256.4" stroke="#9fb6c8" stroke-width="1.4" opacity="0.17"/><line x1="139.0" y1="284.9" x2="124.7" y2="335.8" stroke="#9fb6c8" stroke-width="1.4" opacity="0.20"/><line x1="399.7" y1="-1.5" x2="388.5" y2="38.6" stroke="#9fb6c8" stroke-width="1.4" opacity="0.21"/><line x1="527.0" y1="395.6" x2="521.5" y2="415.4" stroke="#9fb6c8" stroke-width="1.4" opacity="0.19"/><line x1="463.1" y1="491.9" x2="454.9" y2="520.9" stroke="#9fb6c8" stroke-width="1.4" opacity="0.21"/><line x1="279.8" y1="308.1" x2="273.5" y2="330.7" stroke="#9fb6c8" stroke-width="1.4" opacity="0.16"/><line x1="257.8" y1="280.5" x2="241.4" y2="339.0" stroke="#9fb6c8" stroke-width="1.4" opacity="0.20"/><line x1="490.9" y1="445.7" x2="479.1" y2="487.8" stroke="#9fb6c8" stroke-width="1.4" opacity="0.13"/><line x1="45.3" y1="340.9" x2="39.1" y2="363.2" stroke="#9fb6c8" stroke-width="1.4" opacity="0.13"/><line x1="466.6" y1="412.3" x2="458.9" y2="439.7" stroke="#9fb6c8" stroke-width="1.4" opacity="0.12"/><line x1="232.8" y1="41.2" x2="223.1" y2="75.8" stroke="#9fb6c8" stroke-width="1.4" opacity="0.19"/><line x1="99.3" y1="85.1" x2="92.0" y2="111.1" stroke="#9fb6c8" stroke-width="1.4" opacity="0.14"/><line x1="481.3" y1="311.7" x2="465.2" y2="369.4" stroke="#9fb6c8" stroke-width="1.4" opacity="0.21"/><line x1="41.6" y1="205.1" x2="24.8" y2="264.9" stroke="#9fb6c8" stroke-width="1.4" opacity="0.16"/><line x1="286.6" y1="350.5" x2="277.5" y2="383.1" stroke="#9fb6c8" stroke-width="1.4" opacity="0.06"/><line x1="39.6" y1="38.2" x2="33.7" y2="59.4" stroke="#9fb6c8" stroke-width="1.4" opacity="0.07"/><line x1="-32.3" y1="330.3" x2="-45.5" y2="377.4" stroke="#9fb6c8" stroke-width="1.4" opacity="0.10"/><line x1="247.3" y1="295.9" x2="239.2" y2="324.7" stroke="#9fb6c8" stroke-width="1.4" opacity="0.16"/><line x1="224.4" y1="262.9" x2="219.4" y2="280.9" stroke="#9fb6c8" stroke-width="1.4" opacity="0.19"/><line x1="221.0" y1="427.9" x2="211.9" y2="460.6" stroke="#9fb6c8" stroke-width="1.4" opacity="0.21"/><line x1="314.8" y1="81.1" x2="308.9" y2="102.2" stroke="#9fb6c8" stroke-width="1.4" opacity="0.17"/><line x1="32.7" y1="469.0" x2="25.6" y2="494.5" stroke="#9fb6c8" stroke-width="1.4" opacity="0.22"/><line x1="248.3" y1="277.5" x2="241.8" y2="300.8" stroke="#9fb6c8" stroke-width="1.4" opacity="0.16"/><line x1="111.6" y1="-21.9" x2="95.0" y2="37.3" stroke="#9fb6c8" stroke-width="1.4" opacity="0.08"/><line x1="211.6" y1="164.3" x2="203.3" y2="194.1" stroke="#9fb6c8" stroke-width="1.4" opacity="0.15"/><line x1="169.3" y1="133.6" x2="157.7" y2="174.8" stroke="#9fb6c8" stroke-width="1.4" opacity="0.15"/><line x1="167.9" y1="73.5" x2="162.3" y2="93.7" stroke="#9fb6c8" stroke-width="1.4" opacity="0.19"/><line x1="249.2" y1="344.6" x2="237.2" y2="387.6" stroke="#9fb6c8" stroke-width="1.4" opacity="0.19"/><line x1="25.9" y1="135.4" x2="12.9" y2="182.0" stroke="#9fb6c8" stroke-width="1.4" opacity="0.18"/><line x1="469.1" y1="479.7" x2="463.7" y2="499.0" stroke="#9fb6c8" stroke-width="1.4" opacity="0.08"/><line x1="212.9" y1="454.8" x2="202.8" y2="490.9" stroke="#9fb6c8" stroke-width="1.4" opacity="0.14"/>
<ellipse cx="256" cy="330" rx="150" ry="22" fill="#e8c66a" opacity=".08"/>
</g>
<polygon points="434.4,339.0 256.0,442.0 77.6,339.0 77.6,133.0 256.0,30.0 434.4,133.0" fill="none" stroke="#e8c66a" stroke-width="6" filter="url(#glow)"/><polygon points="418.8,330.0 256.0,424.0 93.2,330.0 93.2,142.0 256.0,48.0 418.8,142.0" fill="none" stroke="#e8c66a" stroke-width="1.5" opacity=".55"/><circle cx="425.7" cy="334.0" r="5" fill="#e8c66a"/><circle cx="256.0" cy="432.0" r="5" fill="#e8c66a"/><circle cx="86.3" cy="334.0" r="5" fill="#e8c66a"/><circle cx="86.3" cy="138.0" r="5" fill="#e8c66a"/><circle cx="256.0" cy="40.0" r="5" fill="#e8c66a"/><circle cx="425.7" cy="138.0" r="5" fill="#e8c66a"/>

<g transform="translate(256 226) scale(1.62)" filter="url(#soft)"><path class="g" d="M-10,-10 L-90,-40 L-80,-24 L-92,-16 L-76,-4 L-86,6 L-20,10 Z"/><path class="g" d="M10,-10 L90,-40 L80,-24 L92,-16 L76,-4 L86,6 L20,10 Z"/><g transform="translate(0,6) scale(0.42)"><path class="g" d="M-60,20 C-62,-50 -30,-80 0,-80 C30,-80 62,-50 60,20 L48,60 L-48,60 Z"/><path class="f" d="M-46,-14 L46,-14 L40,6 L-40,6 Z"/><line class="d" x1="-30" y1="34" x2="30" y2="34"/><line class="d" x1="0" y1="20" x2="0" y2="58"/></g><path class="s" d="M-30,50 L0,66 L30,50 M-30,64 L0,80 L30,64"/></g>
<g>
<path d="M66,402 L446,402 L462,424 L446,446 L66,446 L50,424 Z" fill="#07080c" stroke="#e8c66a" stroke-width="3"/>
<text x="256" y="437" text-anchor="middle" font-family="Bebas Neue, Oswald, Impact, 'Arial Narrow', sans-serif" font-size="36" letter-spacing="2" fill="#f1ede4">CTAC</text>
</g>
<text x="256" y="472" text-anchor="middle" font-family="Courier New, monospace" font-size="13" letter-spacing="4" fill="#e8c66a" opacity=".8">NET-001 // BAY CITY</text>
</svg>