<svg xmlns="http://www.w3.org/2000/svg" viewBox="0 0 512 512" width="512" height="512">
<defs>
<radialGradient id="bg" cx="50%" cy="38%" r="70%"><stop offset="0" stop-color="#1a1f2b"/><stop offset=".55" stop-color="#0b0d13"/><stop offset="1" stop-color="#030305"/></radialGradient>
<linearGradient id="haze" x1="0" y1="0" x2="0" y2="1"><stop offset="0" stop-color="#32c7d6" stop-opacity=".16"/><stop offset=".5" stop-color="#32c7d6" stop-opacity="0"/><stop offset="1" stop-color="#e8c66a" stop-opacity=".14"/></linearGradient>
<filter id="glow" x="-30%" y="-30%" width="160%" height="160%"><feGaussianBlur stdDeviation="5" result="b"/><feMerge><feMergeNode in="b"/><feMergeNode in="SourceGraphic"/></feMerge></filter>
<filter id="soft" x="-30%" y="-30%" width="160%" height="160%"><feGaussianBlur stdDeviation="2.2" result="b"/><feMerge><feMergeNode in="b"/><feMergeNode in="b"/><feMergeNode in="SourceGraphic"/></feMerge></filter>
<clipPath id="clip"><polygon points="434.4,339.0 256.0,442.0 77.6,339.0 77.6,133.0 256.0,30.0 434.4,133.0"/></clipPath>
<style>.g{fill:#0d1018;stroke:#e8c66a;stroke-width:4.5;stroke-linejoin:round;stroke-linecap:round}.s{fill:none;stroke:#e8c66a;stroke-width:4.5;stroke-linejoin:round;stroke-linecap:round}.f{fill:#e8c66a;stroke:none}.d{fill:none;stroke:#e8c66a;stroke-width:2;opacity:.55;stroke-linecap:round}</style>
</defs>
<g clip-path="url(#clip)">
<rect width="512" height="512" fill="url(#bg)"/>
<rect width="512" height="512" fill="url(#haze)"/>
<g opacity=".5"><line x1="0" y1="6" x2="512" y2="6" stroke="#ffffff" stroke-width="1" opacity=".035"/><line x1="0" y1="12" x2="512" y2="12" stroke="#ffffff" stroke-width="1" opacity=".035"/><line x1="0" y1="18" x2="512" y2="18" stroke="#ffffff" stroke-width="1" opacity=".035"/><line x1="0" y1="24" x2="512" y2="24" stroke="#ffffff" stroke-width="1" opacity=".035"/><line x1="0" y1="30" x2="512" y2="30" stroke="#ffffff" stroke-width="1" opacity=".035"/><line x1="0" y1="36" x2="512" y2="36" stroke="#ffffff" stroke-width="1" opacity=".035"/><line x1="0" y1="42" x2="512" y2="42" stroke="#ffffff" stroke-width="1" opacity=".035"/><line x1="0" y1="48" x2="512" y2="48" stroke="#ffffff" stroke-width="1" opacity=".035"/><line x1="0" y1="54" x2="512" y2="54" stroke="#ffffff" stroke-width="1" opacity=".035"/><line x1="0" y1="60" x2="512" y2="60" stroke="#ffffff" stroke-width="1" opacity=".035"/><line x1="0" y1="66" x2="512" y2="66" stroke="#ffffff" stroke-width="1" opacity=".035"/><line x1="0" y1="72" x2="512" y2="72" stroke="#ffffff" stroke-width="1" opacity=".035"/><line x1="0" y1="78" x2="512" y2="78" stroke="#ffffff" stroke-width="1" opacity=".035"/><line x1="0" y1="84" x2="512" y2="84" stroke="#ffffff" stroke-width="1" opacity=".035"/><line x1="0" y1="90" x2="512" y2="90" stroke="#ffffff" stroke-width="1" opacity=".035"/><line x1="0" y1="96" x2="512" y2="96" stroke="#ffffff" stroke-width="1" opacity=".035"/><line x1="0" y1="102" x2="512" y2="102" stroke="#ffffff" stroke-width="1" opacity=".035"/><line x1="0" y1="108" x2="512" y2="108" stroke="#ffffff" stroke-width="1" opacity=".035"/><line x1="0" y1="114" x2="512" y2="114" stroke="#ffffff" stroke-width="1" opacity=".035"/><line x1="0" y1="120" x2="512" y2="120" stroke="#ffffff" stroke-width="1" opacity=".035"/><line x1="0" y1="126" x2="512" y2="126" stroke="#ffffff" stroke-width="1" opacity=".035"/><line x1="0" y1="132" x2="512" y2="132" stroke="#ffffff" stroke-width="1" opacity=".035"/><line x1="0" y1="138" x2="512" y2="138" stroke="#ffffff" stroke-width="1" opacity=".035"/><line x1="0" y1="144" x2="512" y2="144" stroke="#ffffff" stroke-width="1" opacity=".035"/><line x1="0" y1="150" x2="512" y2="150" stroke="#ffffff" stroke-width="1" opacity=".035"/><line x1="0" y1="156" x2="512" y2="156" stroke="#ffffff" stroke-width="1" opacity=".035"/><line x1="0" y1="162" x2="512" y2="162" stroke="#ffffff" stroke-width="1" opacity=".035"/><line x1="0" y1="168" x2="512" y2="168" stroke="#ffffff" stroke-width="1" opacity=".035"/><line x1="0" y1="174" x2="512" y2="174" stroke="#ffffff" stroke-width="1" opacity=".035"/><line x1="0" y1="180" x2="512" y2="180" stroke="#ffffff" stroke-width="1" opacity=".035"/><line x1="0" y1="186" x2="512" y2="186" stroke="#ffffff" stroke-width="1" opacity=".035"/><line x1="0" y1="192" x2="512" y2="192" stroke="#ffffff" stroke-width="1" opacity=".035"/><line x1="0" y1="198" x2="512" y2="198" stroke="#ffffff" stroke-width="1" opacity=".035"/><line x1="0" y1="204" x2="512" y2="204" stroke="#ffffff" stroke-width="1" opacity=".035"/><line x1="0" y1="210" x2="512" y2="210" stroke="#ffffff" stroke-width="1" opacity=".035"/><line x1="0" y1="216" x2="512" y2="216" stroke="#ffffff" stroke-width="1" opacity=".035"/><line x1="0" y1="222" x2="512" y2="222" stroke="#ffffff" stroke-width="1" opacity=".035"/><line x1="0" y1="228" x2="512" y2="228" stroke="#ffffff" stroke-width="1" opacity=".035"/><line x1="0" y1="234" x2="512" y2="234" stroke="#ffffff" stroke-width="1" opacity=".035"/><line x1="0" y1="240" x2="512" y2="240" stroke="#ffffff" stroke-width="1" opacity=".035"/><line x1="0" y1="246" x2="512" y2="246" stroke="#ffffff" stroke-width="1" opacity=".035"/><line x1="0" y1="252" x2="512" y2="252" stroke="#ffffff" stroke-width="1" opacity=".035"/><line x1="0" y1="258" x2="512" y2="258" stroke="#ffffff" stroke-width="1" opacity=".035"/><line x1="0" y1="264" x2="512" y2="264" stroke="#ffffff" stroke-width="1" opacity=".035"/><line x1="0" y1="270" x2="512" y2="270" stroke="#ffffff" stroke-width="1" opacity=".035"/><line x1="0" y1="276" x2="512" y2="276" stroke="#ffffff" stroke-width="1" opacity=".035"/><line x1="0" y1="282" x2="512" y2="282" stroke="#ffffff" stroke-width="1" opacity=".035"/><line x1="0" y1="288" x2="512" y2="288" stroke="#ffffff" stroke-width="1" opacity=".035"/><line x1="0" y1="294" x2="512" y2="294" stroke="#ffffff" stroke-width="1" opacity=".035"/><line x1="0" y1="300" x2="512" y2="300" stroke="#ffffff" stroke-width="1" opacity=".035"/><line x1="0" y1="306" x2="512" y2="306" stroke="#ffffff" stroke-width="1" opacity=".035"/><line x1="0" y1="312" x2="512" y2="312" stroke="#ffffff" stroke-width="1" opacity=".035"/><line x1="0" y1="318" x2="512" y2="318" stroke="#ffffff" stroke-width="1" opacity=".035"/><line x1="0" y1="324" x2="512" y2="324" stroke="#ffffff" stroke-width="1" opacity=".035"/><line x1="0" y1="330" x2="512" y2="330" stroke="#ffffff" stroke-width="1" opacity=".035"/><line x1="0" y1="336" x2="512" y2="336" stroke="#ffffff" stroke-width="1" opacity=".035"/><line x1="0" y1="342" x2="512" y2="342" stroke="#ffffff" stroke-width="1" opacity=".035"/><line x1="0" y1="348" x2="512" y2="348" stroke="#ffffff" stroke-width="1" opacity=".035"/><line x1="0" y1="354" x2="512" y2="354" stroke="#ffffff" stroke-width="1" opacity=".035"/><line x1="0" y1="360" x2="512" y2="360" stroke="#ffffff" stroke-width="1" opacity=".035"/><line x1="0" y1="366" x2="512" y2="366" stroke="#ffffff" stroke-width="1" opacity=".035"/><line x1="0" y1="372" x2="512" y2="372" stroke="#ffffff" stroke-width="1" opacity=".035"/><line x1="0" y1="378" x2="512" y2="378" stroke="#ffffff" stroke-width="1" opacity=".035"/><line x1="0" y1="384" x2="512" y2="384" stroke="#ffffff" stroke-width="1" opacity=".035"/><line x1="0" y1="390" x2="512" y2="390" stroke="#ffffff" stroke-width="1" opacity=".035"/><line x1="0" y1="396" x2="512" y2="396" stroke="#ffffff" stroke-width="1" opacity=".035"/><line x1="0" y1="402" x2="512" y2="402" stroke="#ffffff" stroke-width="1" opacity=".035"/><line x1="0" y1="408" x2="512" y2="408" stroke="#ffffff" stroke-width="1" opacity=".035"/><line x1="0" y1="414" x2="512" y2="414" stroke="#ffffff" stroke-width="1" opacity=".035"/><line x1="0" y1="420" x2="512" y2="420" stroke="#ffffff" stroke-width="1" opacity=".035"/><line x1="0" y1="426" x2="512" y2="426" stroke="#ffffff" stroke-width="1" opacity=".035"/><line x1="0" y1="432" x2="512" y2="432" stroke="#ffffff" stroke-width="1" opacity=".035"/><line x1="0" y1="438" x2="512" y2="438" stroke="#ffffff" stroke-width="1" opacity=".035"/><line x1="0" y1="444" x2="512" y2="444" stroke="#ffffff" stroke-width="1" opacity=".035"/><line x1="0" y1="450" x2="512" y2="450" stroke="#ffffff" stroke-width="1" opacity=".035"/><line x1="0" y1="456" x2="512" y2="456" stroke="#ffffff" stroke-width="1" opacity=".035"/><line x1="0" y1="462" x2="512" y2="462" stroke="#ffffff" stroke-width="1" opacity=".035"/><line x1="0" y1="468" x2="512" y2="468" stroke="#ffffff" stroke-width="1" opacity=".035"/><line x1="0" y1="474" x2="512" y2="474" stroke="#ffffff" stroke-width="1" opacity=".035"/><line x1="0" y1="480" x2="512" y2="480" stroke="#ffffff" stroke-width="1" opacity=".035"/><line x1="0" y1="486" x2="512" y2="486" stroke="#ffffff" stroke-width="1" opacity=".035"/><line x1="0" y1="492" x2="512" y2="492" stroke="#ffffff" stroke-width="1" opacity=".035"/><line x1="0" y1="498" x2="512" y2="498" stroke="#ffffff" stroke-width="1" opacity=".035"/><line x1="0" y1="504" x2="512" y2="504" stroke="#ffffff" stroke-width="1" opacity=".035"/><line x1="0" y1="510" x2="512" y2="510" stroke="#ffffff" stroke-width="1" opacity=".035"/></g>
<line x1="230.6" y1="269.4" x2="223.6" y2="294.2" stroke="#9fb6c8" stroke-width="1.4" opacity="0.16"/><line x1="63.9" y1="262.0" x2="49.8" y2="312.4" stroke="#9fb6c8" stroke-width="1.4" opacity="0.09"/><line x1="150.9" y1="458.8" x2="134.7" y2="516.6" stroke="#9fb6c8" stroke-width="1.4" opacity="0.17"/><line x1="480.9" y1="6.3" x2="468.6" y2="50.1" stroke="#9fb6c8" stroke-width="1.4" opacity="0.08"/><line x1="312.3" y1="338.2" x2="297.1" y2="392.6" stroke="#9fb6c8" stroke-width="1.4" opacity="0.21"/><line x1="333.8" y1="513.3" x2="327.1" y2="537.0" stroke="#9fb6c8" stroke-width="1.4" opacity="0.08"/><line x1="308.6" y1="171.3" x2="292.4" y2="229.1" stroke="#9fb6c8" stroke-width="1.4" opacity="0.21"/><line x1="406.2" y1="152.8" x2="400.3" y2="173.8" stroke="#9fb6c8" stroke-width="1.4" opacity="0.19"/><line x1="443.2" y1="38.3" x2="436.8" y2="61.3" stroke="#9fb6c8" stroke-width="1.4" opacity="0.20"/><line x1="389.9" y1="366.2" x2="380.8" y2="398.9" stroke="#9fb6c8" stroke-width="1.4" opacity="0.14"/><line x1="-25.3" y1="303.6" x2="-36.3" y2="343.0" stroke="#9fb6c8" stroke-width="1.4" opacity="0.15"/><line x1="208.4" y1="119.7" x2="200.8" y2="146.8" stroke="#9fb6c8" stroke-width="1.4" opacity="0.08"/><line x1="522.0" y1="88.3" x2="509.5" y2="133.0" stroke="#9fb6c8" stroke-width="1.4" opacity="0.21"/><line x1="56.3" y1="441.5" x2="40.9" y2="496.6" stroke="#9fb6c8" stroke-width="1.4" opacity="0.12"/><line x1="210.2" y1="351.3" x2="204.4" y2="371.7" stroke="#9fb6c8" stroke-width="1.4" opacity="0.09"/><line x1="152.4" y1="346.3" x2="139.1" y2="393.8" stroke="#9fb6c8" stroke-width="1.4" opacity="0.15"/><line x1="337.1" y1="269.8" x2="325.0" y2="313.0" stroke="#9fb6c8" stroke-width="1.4" opacity="0.07"/><line x1="336.7" y1="139.6" x2="326.2" y2="176.9" stroke="#9fb6c8" stroke-width="1.4" opacity="0.07"/><line x1="380.2" y1="91.9" x2="369.0" y2="132.0" stroke="#9fb6c8" stroke-width="1.4" opacity="0.12"/><line x1="302.4" y1="11.8" x2="288.9" y2="60.1" stroke="#9fb6c8" stroke-width="1.4" opacity="0.21"/><line x1="153.0" y1="165.3" x2="140.0" y2="211.7" stroke="#9fb6c8" stroke-width="1.4" opacity="0.06"/><line x1="236.9" y1="7.3" x2="227.0" y2="42.3" stroke="#9fb6c8" stroke-width="1.4" opacity="0.13"/><line x1="79.3" y1="8.8" x2="69.4" y2="44.2" stroke="#9fb6c8" stroke-width="1.4" opacity="0.10"/><line x1="40.0" y1="328.5" x2="27.8" y2="371.9" stroke="#9fb6c8" stroke-width="1.4" opacity="0.20"/><line x1="194.9" y1="46.6" x2="179.1" y2="103.0" stroke="#9fb6c8" stroke-width="1.4" opacity="0.19"/><line x1="544.8" y1="140.7" x2="537.6" y2="166.4" stroke="#9fb6c8" stroke-width="1.4" opacity="0.13"/><line x1="216.1" y1="242.3" x2="207.4" y2="273.4" stroke="#9fb6c8" stroke-width="1.4" opacity="0.20"/><line x1="381.5" y1="32.4" x2="364.8" y2="92.2" stroke="#9fb6c8" stroke-width="1.4" opacity="0.18"/><line x1="531.4" y1="153.7" x2="520.6" y2="192.4" stroke="#9fb6c8" stroke-width="1.4" opacity="0.15"/><line x1="181.3" y1="157.2" x2="166.2" y2="211.0" stroke="#9fb6c8" stroke-width="1.4" opacity="0.09"/><line x1="49.5" y1="377.7" x2="32.8" y2="437.3" stroke="#9fb6c8" stroke-width="1.4" opacity="0.18"/><line x1="225.3" y1="117.9" x2="212.7" y2="162.9" stroke="#9fb6c8" stroke-width="1.4" opacity="0.19"/><line x1="168.2" y1="-34.8" x2="157.4" y2="3.7" stroke="#9fb6c8" stroke-width="1.4" opacity="0.07"/><line x1="144.5" y1="499.2" x2="131.2" y2="546.8" stroke="#9fb6c8" stroke-width="1.4" opacity="0.21"/>
<ellipse cx="256" cy="330" rx="150" ry="22" fill="#e8c66a" opacity=".08"/>
</g>
<polygon points="434.4,339.0 256.0,442.0 77.6,339.0 77.6,133.0 256.0,30.0 434.4,133.0" fill="none" stroke="#e8c66a" stroke-width="6" filter="url(#glow)"/><polygon points="418.8,330.0 256.0,424.0 93.2,330.0 93.2,142.0 256.0,48.0 418.8,142.0" fill="none" stroke="#e8c66a" stroke-width="1.5" opacity=".55"/><circle cx="425.7" cy="334.0" r="5" fill="#e8c66a"/><circle cx="256.0" cy="432.0" r="5" fill="#e8c66a"/><circle cx="86.3" cy="334.0" r="5" fill="#e8c66a"/><circle cx="86.3" cy="138.0" r="5" fill="#e8c66a"/><circle cx="256.0" cy="40.0" r="5" fill="#e8c66a"/><circle cx="425.7" cy="138.0" r="5" fill="#e8c66a"/>

<g transform="translate(256 226) scale(1.62)" filter="url(#soft)"><path class="g" d="M0.0,-80.0 L25.2,-52.3 L62.5,-49.9 L56.5,-12.9 L78.0,17.8 L45.3,36.2 L34.7,72.1 L0.0,58.0 L-34.7,72.1 L-45.3,36.2 L-78.0,17.8 L-56.5,-12.9 L-62.5,-49.9 L-25.2,-52.3 Z"/><circle class="s" cx="0" cy="0" r="40"/><path class="f" d="M0.0,-26.0 L6.5,-8.9 L24.7,-8.0 L10.5,3.4 L15.3,21.0 L0.0,11.0 L-15.3,21.0 L-10.5,3.4 L-24.7,-8.0 L-6.5,-8.9 Z"/></g>
<g>
<path d="M66,402 L446,402 L462,424 L446,446 L66,446 L50,424 Z" fill="#07080c" stroke="#e8c66a" stroke-width="3"/>
<text x="256" y="437" text-anchor="middle" font-family="Bebas Neue, Oswald, Impact, 'Arial Narrow', sans-serif" font-size="36" letter-spacing="2" fill="#f1ede4">POLICE</text>
</g>
<text x="256" y="472" text-anchor="middle" font-family="Courier New, monospace" font-size="13" letter-spacing="4" fill="#e8c66a" opacity=".8">NET-005 // BAY CITY</text>
</svg>