<svg xmlns="http://www.w3.org/2000/svg" viewBox="0 0 512 512" width="512" height="512">
<defs>
<radialGradient id="bg" cx="50%" cy="38%" r="70%"><stop offset="0" stop-color="#1a1f2b"/><stop offset=".55" stop-color="#0b0d13"/><stop offset="1" stop-color="#030305"/></radialGradient>
<linearGradient id="haze" x1="0" y1="0" x2="0" y2="1"><stop offset="0" stop-color="#ff4fd8" stop-opacity=".16"/><stop offset=".5" stop-color="#ff4fd8" stop-opacity="0"/><stop offset="1" stop-color="#32c7d6" stop-opacity=".14"/></linearGradient>
<filter id="glow" x="-30%" y="-30%" width="160%" height="160%"><feGaussianBlur stdDeviation="5" result="b"/><feMerge><feMergeNode in="b"/><feMergeNode in="SourceGraphic"/></feMerge></filter>
<filter id="soft" x="-30%" y="-30%" width="160%" height="160%"><feGaussianBlur stdDeviation="2.2" result="b"/><feMerge><feMergeNode in="b"/><feMergeNode in="b"/><feMergeNode in="SourceGraphic"/></feMerge></filter>
<clipPath id="clip"><circle cx="256" cy="236" r="208"/></clipPath>
<style>.g{fill:#0d1018;stroke:#32c7d6;stroke-width:4.5;stroke-linejoin:round;stroke-linecap:round}.s{fill:none;stroke:#32c7d6;stroke-width:4.5;stroke-linejoin:round;stroke-linecap:round}.f{fill:#32c7d6;stroke:none}.d{fill:none;stroke:#32c7d6;stroke-width:2;opacity:.55;stroke-linecap:round}</style>
</defs>
<g clip-path="url(#clip)">
<rect width="512" height="512" fill="url(#bg)"/>
<rect width="512" height="512" fill="url(#haze)"/>
<g opacity=".5"><line x1="0" y1="6" x2="512" y2="6" stroke="#ffffff" stroke-width="1" opacity=".035"/><line x1="0" y1="12" x2="512" y2="12" stroke="#ffffff" stroke-width="1" opacity=".035"/><line x1="0" y1="18" x2="512" y2="18" stroke="#ffffff" stroke-width="1" opacity=".035"/><line x1="0" y1="24" x2="512" y2="24" stroke="#ffffff" stroke-width="1" opacity=".035"/><line x1="0" y1="30" x2="512" y2="30" stroke="#ffffff" stroke-width="1" opacity=".035"/><line x1="0" y1="36" x2="512" y2="36" stroke="#ffffff" stroke-width="1" opacity=".035"/><line x1="0" y1="42" x2="512" y2="42" stroke="#ffffff" stroke-width="1" opacity=".035"/><line x1="0" y1="48" x2="512" y2="48" stroke="#ffffff" stroke-width="1" opacity=".035"/><line x1="0" y1="54" x2="512" y2="54" stroke="#ffffff" stroke-width="1" opacity=".035"/><line x1="0" y1="60" x2="512" y2="60" stroke="#ffffff" stroke-width="1" opacity=".035"/><line x1="0" y1="66" x2="512" y2="66" stroke="#ffffff" stroke-width="1" opacity=".035"/><line x1="0" y1="72" x2="512" y2="72" stroke="#ffffff" stroke-width="1" opacity=".035"/><line x1="0" y1="78" x2="512" y2="78" stroke="#ffffff" stroke-width="1" opacity=".035"/><line x1="0" y1="84" x2="512" y2="84" stroke="#ffffff" stroke-width="1" opacity=".035"/><line x1="0" y1="90" x2="512" y2="90" stroke="#ffffff" stroke-width="1" opacity=".035"/><line x1="0" y1="96" x2="512" y2="96" stroke="#ffffff" stroke-width="1" opacity=".035"/><line x1="0" y1="102" x2="512" y2="102" stroke="#ffffff" stroke-width="1" opacity=".035"/><line x1="0" y1="108" x2="512" y2="108" stroke="#ffffff" stroke-width="1" opacity=".035"/><line x1="0" y1="114" x2="512" y2="114" stroke="#ffffff" stroke-width="1" opacity=".035"/><line x1="0" y1="120" x2="512" y2="120" stroke="#ffffff" stroke-width="1" opacity=".035"/><line x1="0" y1="126" x2="512" y2="126" stroke="#ffffff" stroke-width="1" opacity=".035"/><line x1="0" y1="132" x2="512" y2="132" stroke="#ffffff" stroke-width="1" opacity=".035"/><line x1="0" y1="138" x2="512" y2="138" stroke="#ffffff" stroke-width="1" opacity=".035"/><line x1="0" y1="144" x2="512" y2="144" stroke="#ffffff" stroke-width="1" opacity=".035"/><line x1="0" y1="150" x2="512" y2="150" stroke="#ffffff" stroke-width="1" opacity=".035"/><line x1="0" y1="156" x2="512" y2="156" stroke="#ffffff" stroke-width="1" opacity=".035"/><line x1="0" y1="162" x2="512" y2="162" stroke="#ffffff" stroke-width="1" opacity=".035"/><line x1="0" y1="168" x2="512" y2="168" stroke="#ffffff" stroke-width="1" opacity=".035"/><line x1="0" y1="174" x2="512" y2="174" stroke="#ffffff" stroke-width="1" opacity=".035"/><line x1="0" y1="180" x2="512" y2="180" stroke="#ffffff" stroke-width="1" opacity=".035"/><line x1="0" y1="186" x2="512" y2="186" stroke="#ffffff" stroke-width="1" opacity=".035"/><line x1="0" y1="192" x2="512" y2="192" stroke="#ffffff" stroke-width="1" opacity=".035"/><line x1="0" y1="198" x2="512" y2="198" stroke="#ffffff" stroke-width="1" opacity=".035"/><line x1="0" y1="204" x2="512" y2="204" stroke="#ffffff" stroke-width="1" opacity=".035"/><line x1="0" y1="210" x2="512" y2="210" stroke="#ffffff" stroke-width="1" opacity=".035"/><line x1="0" y1="216" x2="512" y2="216" stroke="#ffffff" stroke-width="1" opacity=".035"/><line x1="0" y1="222" x2="512" y2="222" stroke="#ffffff" stroke-width="1" opacity=".035"/><line x1="0" y1="228" x2="512" y2="228" stroke="#ffffff" stroke-width="1" opacity=".035"/><line x1="0" y1="234" x2="512" y2="234" stroke="#ffffff" stroke-width="1" opacity=".035"/><line x1="0" y1="240" x2="512" y2="240" stroke="#ffffff" stroke-width="1" opacity=".035"/><line x1="0" y1="246" x2="512" y2="246" stroke="#ffffff" stroke-width="1" opacity=".035"/><line x1="0" y1="252" x2="512" y2="252" stroke="#ffffff" stroke-width="1" opacity=".035"/><line x1="0" y1="258" x2="512" y2="258" stroke="#ffffff" stroke-width="1" opacity=".035"/><line x1="0" y1="264" x2="512" y2="264" stroke="#ffffff" stroke-width="1" opacity=".035"/><line x1="0" y1="270" x2="512" y2="270" stroke="#ffffff" stroke-width="1" opacity=".035"/><line x1="0" y1="276" x2="512" y2="276" stroke="#ffffff" stroke-width="1" opacity=".035"/><line x1="0" y1="282" x2="512" y2="282" stroke="#ffffff" stroke-width="1" opacity=".035"/><line x1="0" y1="288" x2="512" y2="288" stroke="#ffffff" stroke-width="1" opacity=".035"/><line x1="0" y1="294" x2="512" y2="294" stroke="#ffffff" stroke-width="1" opacity=".035"/><line x1="0" y1="300" x2="512" y2="300" stroke="#ffffff" stroke-width="1" opacity=".035"/><line x1="0" y1="306" x2="512" y2="306" stroke="#ffffff" stroke-width="1" opacity=".035"/><line x1="0" y1="312" x2="512" y2="312" stroke="#ffffff" stroke-width="1" opacity=".035"/><line x1="0" y1="318" x2="512" y2="318" stroke="#ffffff" stroke-width="1" opacity=".035"/><line x1="0" y1="324" x2="512" y2="324" stroke="#ffffff" stroke-width="1" opacity=".035"/><line x1="0" y1="330" x2="512" y2="330" stroke="#ffffff" stroke-width="1" opacity=".035"/><line x1="0" y1="336" x2="512" y2="336" stroke="#ffffff" stroke-width="1" opacity=".035"/><line x1="0" y1="342" x2="512" y2="342" stroke="#ffffff" stroke-width="1" opacity=".035"/><line x1="0" y1="348" x2="512" y2="348" stroke="#ffffff" stroke-width="1" opacity=".035"/><line x1="0" y1="354" x2="512" y2="354" stroke="#ffffff" stroke-width="1" opacity=".035"/><line x1="0" y1="360" x2="512" y2="360" stroke="#ffffff" stroke-width="1" opacity=".035"/><line x1="0" y1="366" x2="512" y2="366" stroke="#ffffff" stroke-width="1" opacity=".035"/><line x1="0" y1="372" x2="512" y2="372" stroke="#ffffff" stroke-width="1" opacity=".035"/><line x1="0" y1="378" x2="512" y2="378" stroke="#ffffff" stroke-width="1" opacity=".035"/><line x1="0" y1="384" x2="512" y2="384" stroke="#ffffff" stroke-width="1" opacity=".035"/><line x1="0" y1="390" x2="512" y2="390" stroke="#ffffff" stroke-width="1" opacity=".035"/><line x1="0" y1="396" x2="512" y2="396" stroke="#ffffff" stroke-width="1" opacity=".035"/><line x1="0" y1="402" x2="512" y2="402" stroke="#ffffff" stroke-width="1" opacity=".035"/><line x1="0" y1="408" x2="512" y2="408" stroke="#ffffff" stroke-width="1" opacity=".035"/><line x1="0" y1="414" x2="512" y2="414" stroke="#ffffff" stroke-width="1" opacity=".035"/><line x1="0" y1="420" x2="512" y2="420" stroke="#ffffff" stroke-width="1" opacity=".035"/><line x1="0" y1="426" x2="512" y2="426" stroke="#ffffff" stroke-width="1" opacity=".035"/><line x1="0" y1="432" x2="512" y2="432" stroke="#ffffff" stroke-width="1" opacity=".035"/><line x1="0" y1="438" x2="512" y2="438" stroke="#ffffff" stroke-width="1" opacity=".035"/><line x1="0" y1="444" x2="512" y2="444" stroke="#ffffff" stroke-width="1" opacity=".035"/><line x1="0" y1="450" x2="512" y2="450" stroke="#ffffff" stroke-width="1" opacity=".035"/><line x1="0" y1="456" x2="512" y2="456" stroke="#ffffff" stroke-width="1" opacity=".035"/><line x1="0" y1="462" x2="512" y2="462" stroke="#ffffff" stroke-width="1" opacity=".035"/><line x1="0" y1="468" x2="512" y2="468" stroke="#ffffff" stroke-width="1" opacity=".035"/><line x1="0" y1="474" x2="512" y2="474" stroke="#ffffff" stroke-width="1" opacity=".035"/><line x1="0" y1="480" x2="512" y2="480" stroke="#ffffff" stroke-width="1" opacity=".035"/><line x1="0" y1="486" x2="512" y2="486" stroke="#ffffff" stroke-width="1" opacity=".035"/><line x1="0" y1="492" x2="512" y2="492" stroke="#ffffff" stroke-width="1" opacity=".035"/><line x1="0" y1="498" x2="512" y2="498" stroke="#ffffff" stroke-width="1" opacity=".035"/><line x1="0" y1="504" x2="512" y2="504" stroke="#ffffff" stroke-width="1" opacity=".035"/><line x1="0" y1="510" x2="512" y2="510" stroke="#ffffff" stroke-width="1" opacity=".035"/></g>
<line x1="175.8" y1="434.0" x2="162.1" y2="482.9" stroke="#9fb6c8" stroke-width="1.4" opacity="0.20"/><line x1="8.8" y1="95.0" x2="1.0" y2="123.1" stroke="#9fb6c8" stroke-width="1.4" opacity="0.16"/><line x1="40.0" y1="368.1" x2="34.7" y2="387.1" stroke="#9fb6c8" stroke-width="1.4" opacity="0.19"/><line x1="479.9" y1="216.1" x2="468.6" y2="256.5" stroke="#9fb6c8" stroke-width="1.4" opacity="0.15"/><line x1="497.7" y1="8.2" x2="490.0" y2="35.8" stroke="#9fb6c8" stroke-width="1.4" opacity="0.06"/><line x1="477.7" y1="224.9" x2="470.0" y2="252.5" stroke="#9fb6c8" stroke-width="1.4" opacity="0.20"/><line x1="336.9" y1="-33.8" x2="329.6" y2="-8.0" stroke="#9fb6c8" stroke-width="1.4" opacity="0.12"/><line x1="420.4" y1="345.2" x2="412.4" y2="373.7" stroke="#9fb6c8" stroke-width="1.4" opacity="0.12"/><line x1="252.2" y1="62.4" x2="239.3" y2="108.6" stroke="#9fb6c8" stroke-width="1.4" opacity="0.19"/><line x1="223.8" y1="298.0" x2="212.2" y2="339.2" stroke="#9fb6c8" stroke-width="1.4" opacity="0.20"/><line x1="437.5" y1="343.1" x2="427.3" y2="379.3" stroke="#9fb6c8" stroke-width="1.4" opacity="0.13"/><line x1="167.9" y1="262.9" x2="162.1" y2="283.3" stroke="#9fb6c8" stroke-width="1.4" opacity="0.20"/><line x1="2.3" y1="104.3" x2="-13.0" y2="158.9" stroke="#9fb6c8" stroke-width="1.4" opacity="0.22"/><line x1="385.1" y1="247.6" x2="368.7" y2="306.1" stroke="#9fb6c8" stroke-width="1.4" opacity="0.11"/><line x1="345.7" y1="501.1" x2="330.0" y2="557.5" stroke="#9fb6c8" stroke-width="1.4" opacity="0.12"/><line x1="381.7" y1="167.6" x2="370.7" y2="207.0" stroke="#9fb6c8" stroke-width="1.4" opacity="0.06"/><line x1="354.2" y1="167.7" x2="345.7" y2="197.8" stroke="#9fb6c8" stroke-width="1.4" opacity="0.15"/><line x1="461.3" y1="279.4" x2="445.8" y2="334.7" stroke="#9fb6c8" stroke-width="1.4" opacity="0.14"/><line x1="355.5" y1="191.3" x2="349.2" y2="214.0" stroke="#9fb6c8" stroke-width="1.4" opacity="0.13"/><line x1="473.6" y1="443.7" x2="461.5" y2="486.6" stroke="#9fb6c8" stroke-width="1.4" opacity="0.11"/><line x1="541.4" y1="453.4" x2="528.0" y2="501.3" stroke="#9fb6c8" stroke-width="1.4" opacity="0.16"/><line x1="179.4" y1="281.8" x2="171.4" y2="310.7" stroke="#9fb6c8" stroke-width="1.4" opacity="0.13"/><line x1="260.2" y1="411.2" x2="248.0" y2="454.8" stroke="#9fb6c8" stroke-width="1.4" opacity="0.14"/><line x1="102.7" y1="431.9" x2="88.6" y2="482.2" stroke="#9fb6c8" stroke-width="1.4" opacity="0.22"/><line x1="319.1" y1="314.7" x2="311.6" y2="341.2" stroke="#9fb6c8" stroke-width="1.4" opacity="0.15"/><line x1="267.3" y1="452.8" x2="251.4" y2="509.5" stroke="#9fb6c8" stroke-width="1.4" opacity="0.10"/><line x1="243.8" y1="107.8" x2="228.2" y2="163.5" stroke="#9fb6c8" stroke-width="1.4" opacity="0.16"/><line x1="231.2" y1="405.7" x2="217.6" y2="454.3" stroke="#9fb6c8" stroke-width="1.4" opacity="0.19"/><line x1="308.9" y1="-24.4" x2="302.4" y2="-1.2" stroke="#9fb6c8" stroke-width="1.4" opacity="0.15"/><line x1="-35.2" y1="483.2" x2="-43.4" y2="512.4" stroke="#9fb6c8" stroke-width="1.4" opacity="0.21"/><line x1="107.3" y1="478.0" x2="99.0" y2="507.5" stroke="#9fb6c8" stroke-width="1.4" opacity="0.05"/><line x1="488.1" y1="450.8" x2="482.3" y2="471.6" stroke="#9fb6c8" stroke-width="1.4" opacity="0.08"/><line x1="434.0" y1="403.4" x2="422.5" y2="444.6" stroke="#9fb6c8" stroke-width="1.4" opacity="0.14"/><line x1="228.5" y1="45.9" x2="213.0" y2="101.3" stroke="#9fb6c8" stroke-width="1.4" opacity="0.09"/>
<ellipse cx="256" cy="330" rx="150" ry="22" fill="#32c7d6" opacity=".08"/>
</g>
<circle cx="256" cy="236" r="208" fill="none" stroke="#32c7d6" stroke-width="6" filter="url(#glow)"/><circle cx="256" cy="236" r="190" fill="none" stroke="#32c7d6" stroke-width="1.5" opacity=".5"/><line x1="256.0" y1="40.0" x2="256.0" y2="54.0" stroke="#32c7d6" stroke-width="2" opacity=".55"/><line x1="281.6" y1="41.7" x2="282.6" y2="33.7" stroke="#32c7d6" stroke-width="2" opacity=".55"/><line x1="306.7" y1="46.7" x2="308.8" y2="39.0" stroke="#32c7d6" stroke-width="2" opacity=".55"/><line x1="331.0" y1="54.9" x2="325.6" y2="67.9" stroke="#32c7d6" stroke-width="2" opacity=".55"/><line x1="354.0" y1="66.3" x2="358.0" y2="59.3" stroke="#32c7d6" stroke-width="2" opacity=".55"/><line x1="375.3" y1="80.5" x2="380.2" y2="74.2" stroke="#32c7d6" stroke-width="2" opacity=".55"/><line x1="394.6" y1="97.4" x2="384.7" y2="107.3" stroke="#32c7d6" stroke-width="2" opacity=".55"/><line x1="411.5" y1="116.7" x2="417.8" y2="111.8" stroke="#32c7d6" stroke-width="2" opacity=".55"/><line x1="425.7" y1="138.0" x2="432.7" y2="134.0" stroke="#32c7d6" stroke-width="2" opacity=".55"/><line x1="437.1" y1="161.0" x2="424.1" y2="166.4" stroke="#32c7d6" stroke-width="2" opacity=".55"/><line x1="445.3" y1="185.3" x2="453.0" y2="183.2" stroke="#32c7d6" stroke-width="2" opacity=".55"/><line x1="450.3" y1="210.4" x2="458.3" y2="209.4" stroke="#32c7d6" stroke-width="2" opacity=".55"/><line x1="452.0" y1="236.0" x2="438.0" y2="236.0" stroke="#32c7d6" stroke-width="2" opacity=".55"/><line x1="450.3" y1="261.6" x2="458.3" y2="262.6" stroke="#32c7d6" stroke-width="2" opacity=".55"/><line x1="445.3" y1="286.7" x2="453.0" y2="288.8" stroke="#32c7d6" stroke-width="2" opacity=".55"/><line x1="437.1" y1="311.0" x2="424.1" y2="305.6" stroke="#32c7d6" stroke-width="2" opacity=".55"/><line x1="425.7" y1="334.0" x2="432.7" y2="338.0" stroke="#32c7d6" stroke-width="2" opacity=".55"/><line x1="411.5" y1="355.3" x2="417.8" y2="360.2" stroke="#32c7d6" stroke-width="2" opacity=".55"/><line x1="394.6" y1="374.6" x2="384.7" y2="364.7" stroke="#32c7d6" stroke-width="2" opacity=".55"/><line x1="375.3" y1="391.5" x2="380.2" y2="397.8" stroke="#32c7d6" stroke-width="2" opacity=".55"/><line x1="354.0" y1="405.7" x2="358.0" y2="412.7" stroke="#32c7d6" stroke-width="2" opacity=".55"/><line x1="331.0" y1="417.1" x2="325.6" y2="404.1" stroke="#32c7d6" stroke-width="2" opacity=".55"/><line x1="306.7" y1="425.3" x2="308.8" y2="433.0" stroke="#32c7d6" stroke-width="2" opacity=".55"/><line x1="281.6" y1="430.3" x2="282.6" y2="438.3" stroke="#32c7d6" stroke-width="2" opacity=".55"/><line x1="256.0" y1="432.0" x2="256.0" y2="418.0" stroke="#32c7d6" stroke-width="2" opacity=".55"/><line x1="230.4" y1="430.3" x2="229.4" y2="438.3" stroke="#32c7d6" stroke-width="2" opacity=".55"/><line x1="205.3" y1="425.3" x2="203.2" y2="433.0" stroke="#32c7d6" stroke-width="2" opacity=".55"/><line x1="74.9" y1="311.0" x2="87.9" y2="305.6" stroke="#32c7d6" stroke-width="2" opacity=".55"/><line x1="66.7" y1="286.7" x2="59.0" y2="288.8" stroke="#32c7d6" stroke-width="2" opacity=".55"/><line x1="61.7" y1="261.6" x2="53.7" y2="262.6" stroke="#32c7d6" stroke-width="2" opacity=".55"/><line x1="60.0" y1="236.0" x2="74.0" y2="236.0" stroke="#32c7d6" stroke-width="2" opacity=".55"/><line x1="61.7" y1="210.4" x2="53.7" y2="209.4" stroke="#32c7d6" stroke-width="2" opacity=".55"/><line x1="66.7" y1="185.3" x2="59.0" y2="183.2" stroke="#32c7d6" stroke-width="2" opacity=".55"/><line x1="74.9" y1="161.0" x2="87.9" y2="166.4" stroke="#32c7d6" stroke-width="2" opacity=".55"/><line x1="86.3" y1="138.0" x2="79.3" y2="134.0" stroke="#32c7d6" stroke-width="2" opacity=".55"/><line x1="100.5" y1="116.7" x2="94.2" y2="111.8" stroke="#32c7d6" stroke-width="2" opacity=".55"/><line x1="117.4" y1="97.4" x2="127.3" y2="107.3" stroke="#32c7d6" stroke-width="2" opacity=".55"/><line x1="136.7" y1="80.5" x2="131.8" y2="74.2" stroke="#32c7d6" stroke-width="2" opacity=".55"/><line x1="158.0" y1="66.3" x2="154.0" y2="59.3" stroke="#32c7d6" stroke-width="2" opacity=".55"/><line x1="181.0" y1="54.9" x2="186.4" y2="67.9" stroke="#32c7d6" stroke-width="2" opacity=".55"/><line x1="205.3" y1="46.7" x2="203.2" y2="39.0" stroke="#32c7d6" stroke-width="2" opacity=".55"/><line x1="230.4" y1="41.7" x2="229.4" y2="33.7" stroke="#32c7d6" stroke-width="2" opacity=".55"/>

<g transform="translate(256 226) scale(1.68)" filter="url(#soft)"><rect class="g" x="-22" y="-16" width="44" height="32" rx="8"/><circle class="f" cx="0" cy="0" r="7"/><line class="s" x1="-22.400000000000002" y1="-16.0" x2="-56" y2="-40"/><ellipse class="s" cx="-56" cy="-40" rx="28" ry="7"/><line class="s" x1="22.400000000000002" y1="-16.0" x2="56" y2="-40"/><ellipse class="s" cx="56" cy="-40" rx="28" ry="7"/><line class="s" x1="-22.400000000000002" y1="16.0" x2="-56" y2="40"/><ellipse class="s" cx="-56" cy="40" rx="28" ry="7"/><line class="s" x1="22.400000000000002" y1="16.0" x2="56" y2="40"/><ellipse class="s" cx="56" cy="40" rx="28" ry="7"/></g>
<g>
<path d="M66,402 L446,402 L462,424 L446,446 L66,446 L50,424 Z" fill="#07080c" stroke="#32c7d6" stroke-width="3"/>
<text x="256" y="437" text-anchor="middle" font-family="Bebas Neue, Oswald, Impact, 'Arial Narrow', sans-serif" font-size="36" letter-spacing="2" fill="#f1ede4">DRONE</text>
</g>
<text x="256" y="472" text-anchor="middle" font-family="Courier New, monospace" font-size="13" letter-spacing="4" fill="#32c7d6" opacity=".8">EQP-008 // BAY CITY</text>
</svg>