<svg xmlns="http://www.w3.org/2000/svg" viewBox="0 0 512 512" width="512" height="512">
<defs>
<radialGradient id="bg" cx="50%" cy="38%" r="70%"><stop offset="0" stop-color="#1a1f2b"/><stop offset=".55" stop-color="#0b0d13"/><stop offset="1" stop-color="#030305"/></radialGradient>
<linearGradient id="haze" x1="0" y1="0" x2="0" y2="1"><stop offset="0" stop-color="#32c7d6" stop-opacity=".16"/><stop offset=".5" stop-color="#32c7d6" stop-opacity="0"/><stop offset="1" stop-color="#ffb020" stop-opacity=".14"/></linearGradient>
<filter id="glow" x="-30%" y="-30%" width="160%" height="160%"><feGaussianBlur stdDeviation="5" result="b"/><feMerge><feMergeNode in="b"/><feMergeNode in="SourceGraphic"/></feMerge></filter>
<filter id="soft" x="-30%" y="-30%" width="160%" height="160%"><feGaussianBlur stdDeviation="2.2" result="b"/><feMerge><feMergeNode in="b"/><feMergeNode in="b"/><feMergeNode in="SourceGraphic"/></feMerge></filter>
<clipPath id="clip"><circle cx="256" cy="236" r="208"/></clipPath>
<style>.g{fill:#0d1018;stroke:#ffb020;stroke-width:4.5;stroke-linejoin:round;stroke-linecap:round}.s{fill:none;stroke:#ffb020;stroke-width:4.5;stroke-linejoin:round;stroke-linecap:round}.f{fill:#ffb020;stroke:none}.d{fill:none;stroke:#ffb020;stroke-width:2;opacity:.55;stroke-linecap:round}</style>
</defs>
<g clip-path="url(#clip)">
<rect width="512" height="512" fill="url(#bg)"/>
<rect width="512" height="512" fill="url(#haze)"/>
<g opacity=".5"><line x1="0" y1="6" x2="512" y2="6" stroke="#ffffff" stroke-width="1" opacity=".035"/><line x1="0" y1="12" x2="512" y2="12" stroke="#ffffff" stroke-width="1" opacity=".035"/><line x1="0" y1="18" x2="512" y2="18" stroke="#ffffff" stroke-width="1" opacity=".035"/><line x1="0" y1="24" x2="512" y2="24" stroke="#ffffff" stroke-width="1" opacity=".035"/><line x1="0" y1="30" x2="512" y2="30" stroke="#ffffff" stroke-width="1" opacity=".035"/><line x1="0" y1="36" x2="512" y2="36" stroke="#ffffff" stroke-width="1" opacity=".035"/><line x1="0" y1="42" x2="512" y2="42" stroke="#ffffff" stroke-width="1" opacity=".035"/><line x1="0" y1="48" x2="512" y2="48" stroke="#ffffff" stroke-width="1" opacity=".035"/><line x1="0" y1="54" x2="512" y2="54" stroke="#ffffff" stroke-width="1" opacity=".035"/><line x1="0" y1="60" x2="512" y2="60" stroke="#ffffff" stroke-width="1" opacity=".035"/><line x1="0" y1="66" x2="512" y2="66" stroke="#ffffff" stroke-width="1" opacity=".035"/><line x1="0" y1="72" x2="512" y2="72" stroke="#ffffff" stroke-width="1" opacity=".035"/><line x1="0" y1="78" x2="512" y2="78" stroke="#ffffff" stroke-width="1" opacity=".035"/><line x1="0" y1="84" x2="512" y2="84" stroke="#ffffff" stroke-width="1" opacity=".035"/><line x1="0" y1="90" x2="512" y2="90" stroke="#ffffff" stroke-width="1" opacity=".035"/><line x1="0" y1="96" x2="512" y2="96" stroke="#ffffff" stroke-width="1" opacity=".035"/><line x1="0" y1="102" x2="512" y2="102" stroke="#ffffff" stroke-width="1" opacity=".035"/><line x1="0" y1="108" x2="512" y2="108" stroke="#ffffff" stroke-width="1" opacity=".035"/><line x1="0" y1="114" x2="512" y2="114" stroke="#ffffff" stroke-width="1" opacity=".035"/><line x1="0" y1="120" x2="512" y2="120" stroke="#ffffff" stroke-width="1" opacity=".035"/><line x1="0" y1="126" x2="512" y2="126" stroke="#ffffff" stroke-width="1" opacity=".035"/><line x1="0" y1="132" x2="512" y2="132" stroke="#ffffff" stroke-width="1" opacity=".035"/><line x1="0" y1="138" x2="512" y2="138" stroke="#ffffff" stroke-width="1" opacity=".035"/><line x1="0" y1="144" x2="512" y2="144" stroke="#ffffff" stroke-width="1" opacity=".035"/><line x1="0" y1="150" x2="512" y2="150" stroke="#ffffff" stroke-width="1" opacity=".035"/><line x1="0" y1="156" x2="512" y2="156" stroke="#ffffff" stroke-width="1" opacity=".035"/><line x1="0" y1="162" x2="512" y2="162" stroke="#ffffff" stroke-width="1" opacity=".035"/><line x1="0" y1="168" x2="512" y2="168" stroke="#ffffff" stroke-width="1" opacity=".035"/><line x1="0" y1="174" x2="512" y2="174" stroke="#ffffff" stroke-width="1" opacity=".035"/><line x1="0" y1="180" x2="512" y2="180" stroke="#ffffff" stroke-width="1" opacity=".035"/><line x1="0" y1="186" x2="512" y2="186" stroke="#ffffff" stroke-width="1" opacity=".035"/><line x1="0" y1="192" x2="512" y2="192" stroke="#ffffff" stroke-width="1" opacity=".035"/><line x1="0" y1="198" x2="512" y2="198" stroke="#ffffff" stroke-width="1" opacity=".035"/><line x1="0" y1="204" x2="512" y2="204" stroke="#ffffff" stroke-width="1" opacity=".035"/><line x1="0" y1="210" x2="512" y2="210" stroke="#ffffff" stroke-width="1" opacity=".035"/><line x1="0" y1="216" x2="512" y2="216" stroke="#ffffff" stroke-width="1" opacity=".035"/><line x1="0" y1="222" x2="512" y2="222" stroke="#ffffff" stroke-width="1" opacity=".035"/><line x1="0" y1="228" x2="512" y2="228" stroke="#ffffff" stroke-width="1" opacity=".035"/><line x1="0" y1="234" x2="512" y2="234" stroke="#ffffff" stroke-width="1" opacity=".035"/><line x1="0" y1="240" x2="512" y2="240" stroke="#ffffff" stroke-width="1" opacity=".035"/><line x1="0" y1="246" x2="512" y2="246" stroke="#ffffff" stroke-width="1" opacity=".035"/><line x1="0" y1="252" x2="512" y2="252" stroke="#ffffff" stroke-width="1" opacity=".035"/><line x1="0" y1="258" x2="512" y2="258" stroke="#ffffff" stroke-width="1" opacity=".035"/><line x1="0" y1="264" x2="512" y2="264" stroke="#ffffff" stroke-width="1" opacity=".035"/><line x1="0" y1="270" x2="512" y2="270" stroke="#ffffff" stroke-width="1" opacity=".035"/><line x1="0" y1="276" x2="512" y2="276" stroke="#ffffff" stroke-width="1" opacity=".035"/><line x1="0" y1="282" x2="512" y2="282" stroke="#ffffff" stroke-width="1" opacity=".035"/><line x1="0" y1="288" x2="512" y2="288" stroke="#ffffff" stroke-width="1" opacity=".035"/><line x1="0" y1="294" x2="512" y2="294" stroke="#ffffff" stroke-width="1" opacity=".035"/><line x1="0" y1="300" x2="512" y2="300" stroke="#ffffff" stroke-width="1" opacity=".035"/><line x1="0" y1="306" x2="512" y2="306" stroke="#ffffff" stroke-width="1" opacity=".035"/><line x1="0" y1="312" x2="512" y2="312" stroke="#ffffff" stroke-width="1" opacity=".035"/><line x1="0" y1="318" x2="512" y2="318" stroke="#ffffff" stroke-width="1" opacity=".035"/><line x1="0" y1="324" x2="512" y2="324" stroke="#ffffff" stroke-width="1" opacity=".035"/><line x1="0" y1="330" x2="512" y2="330" stroke="#ffffff" stroke-width="1" opacity=".035"/><line x1="0" y1="336" x2="512" y2="336" stroke="#ffffff" stroke-width="1" opacity=".035"/><line x1="0" y1="342" x2="512" y2="342" stroke="#ffffff" stroke-width="1" opacity=".035"/><line x1="0" y1="348" x2="512" y2="348" stroke="#ffffff" stroke-width="1" opacity=".035"/><line x1="0" y1="354" x2="512" y2="354" stroke="#ffffff" stroke-width="1" opacity=".035"/><line x1="0" y1="360" x2="512" y2="360" stroke="#ffffff" stroke-width="1" opacity=".035"/><line x1="0" y1="366" x2="512" y2="366" stroke="#ffffff" stroke-width="1" opacity=".035"/><line x1="0" y1="372" x2="512" y2="372" stroke="#ffffff" stroke-width="1" opacity=".035"/><line x1="0" y1="378" x2="512" y2="378" stroke="#ffffff" stroke-width="1" opacity=".035"/><line x1="0" y1="384" x2="512" y2="384" stroke="#ffffff" stroke-width="1" opacity=".035"/><line x1="0" y1="390" x2="512" y2="390" stroke="#ffffff" stroke-width="1" opacity=".035"/><line x1="0" y1="396" x2="512" y2="396" stroke="#ffffff" stroke-width="1" opacity=".035"/><line x1="0" y1="402" x2="512" y2="402" stroke="#ffffff" stroke-width="1" opacity=".035"/><line x1="0" y1="408" x2="512" y2="408" stroke="#ffffff" stroke-width="1" opacity=".035"/><line x1="0" y1="414" x2="512" y2="414" stroke="#ffffff" stroke-width="1" opacity=".035"/><line x1="0" y1="420" x2="512" y2="420" stroke="#ffffff" stroke-width="1" opacity=".035"/><line x1="0" y1="426" x2="512" y2="426" stroke="#ffffff" stroke-width="1" opacity=".035"/><line x1="0" y1="432" x2="512" y2="432" stroke="#ffffff" stroke-width="1" opacity=".035"/><line x1="0" y1="438" x2="512" y2="438" stroke="#ffffff" stroke-width="1" opacity=".035"/><line x1="0" y1="444" x2="512" y2="444" stroke="#ffffff" stroke-width="1" opacity=".035"/><line x1="0" y1="450" x2="512" y2="450" stroke="#ffffff" stroke-width="1" opacity=".035"/><line x1="0" y1="456" x2="512" y2="456" stroke="#ffffff" stroke-width="1" opacity=".035"/><line x1="0" y1="462" x2="512" y2="462" stroke="#ffffff" stroke-width="1" opacity=".035"/><line x1="0" y1="468" x2="512" y2="468" stroke="#ffffff" stroke-width="1" opacity=".035"/><line x1="0" y1="474" x2="512" y2="474" stroke="#ffffff" stroke-width="1" opacity=".035"/><line x1="0" y1="480" x2="512" y2="480" stroke="#ffffff" stroke-width="1" opacity=".035"/><line x1="0" y1="486" x2="512" y2="486" stroke="#ffffff" stroke-width="1" opacity=".035"/><line x1="0" y1="492" x2="512" y2="492" stroke="#ffffff" stroke-width="1" opacity=".035"/><line x1="0" y1="498" x2="512" y2="498" stroke="#ffffff" stroke-width="1" opacity=".035"/><line x1="0" y1="504" x2="512" y2="504" stroke="#ffffff" stroke-width="1" opacity=".035"/><line x1="0" y1="510" x2="512" y2="510" stroke="#ffffff" stroke-width="1" opacity=".035"/></g>
<line x1="4.4" y1="223.4" x2="-7.7" y2="266.7" stroke="#9fb6c8" stroke-width="1.4" opacity="0.08"/><line x1="360.2" y1="411.9" x2="348.6" y2="453.2" stroke="#9fb6c8" stroke-width="1.4" opacity="0.20"/><line x1="267.9" y1="250.9" x2="253.0" y2="304.2" stroke="#9fb6c8" stroke-width="1.4" opacity="0.13"/><line x1="83.2" y1="186.9" x2="69.4" y2="236.0" stroke="#9fb6c8" stroke-width="1.4" opacity="0.18"/><line x1="133.1" y1="432.0" x2="126.9" y2="454.2" stroke="#9fb6c8" stroke-width="1.4" opacity="0.11"/><line x1="317.1" y1="441.5" x2="301.2" y2="498.2" stroke="#9fb6c8" stroke-width="1.4" opacity="0.16"/><line x1="374.5" y1="338.6" x2="359.1" y2="393.5" stroke="#9fb6c8" stroke-width="1.4" opacity="0.09"/><line x1="236.0" y1="-27.2" x2="227.0" y2="5.0" stroke="#9fb6c8" stroke-width="1.4" opacity="0.15"/><line x1="71.3" y1="166.7" x2="65.5" y2="187.5" stroke="#9fb6c8" stroke-width="1.4" opacity="0.08"/><line x1="471.8" y1="293.6" x2="463.3" y2="324.0" stroke="#9fb6c8" stroke-width="1.4" opacity="0.16"/><line x1="18.8" y1="436.1" x2="9.0" y2="471.1" stroke="#9fb6c8" stroke-width="1.4" opacity="0.14"/><line x1="244.3" y1="343.6" x2="231.5" y2="389.4" stroke="#9fb6c8" stroke-width="1.4" opacity="0.09"/><line x1="493.8" y1="147.0" x2="479.5" y2="198.0" stroke="#9fb6c8" stroke-width="1.4" opacity="0.19"/><line x1="158.7" y1="305.2" x2="150.8" y2="333.5" stroke="#9fb6c8" stroke-width="1.4" opacity="0.19"/><line x1="167.2" y1="112.0" x2="153.5" y2="160.7" stroke="#9fb6c8" stroke-width="1.4" opacity="0.19"/><line x1="539.6" y1="173.7" x2="529.0" y2="211.6" stroke="#9fb6c8" stroke-width="1.4" opacity="0.05"/><line x1="121.4" y1="459.8" x2="109.4" y2="502.7" stroke="#9fb6c8" stroke-width="1.4" opacity="0.15"/><line x1="287.0" y1="59.0" x2="273.1" y2="108.8" stroke="#9fb6c8" stroke-width="1.4" opacity="0.18"/><line x1="103.9" y1="284.4" x2="91.1" y2="330.3" stroke="#9fb6c8" stroke-width="1.4" opacity="0.18"/><line x1="172.0" y1="-1.9" x2="159.0" y2="44.5" stroke="#9fb6c8" stroke-width="1.4" opacity="0.13"/><line x1="230.6" y1="59.3" x2="217.8" y2="105.2" stroke="#9fb6c8" stroke-width="1.4" opacity="0.19"/><line x1="400.9" y1="329.7" x2="386.3" y2="382.0" stroke="#9fb6c8" stroke-width="1.4" opacity="0.14"/><line x1="152.4" y1="436.2" x2="141.4" y2="475.7" stroke="#9fb6c8" stroke-width="1.4" opacity="0.14"/><line x1="453.5" y1="63.7" x2="436.7" y2="123.7" stroke="#9fb6c8" stroke-width="1.4" opacity="0.15"/><line x1="487.6" y1="324.8" x2="474.2" y2="372.7" stroke="#9fb6c8" stroke-width="1.4" opacity="0.12"/><line x1="388.5" y1="437.1" x2="377.0" y2="478.1" stroke="#9fb6c8" stroke-width="1.4" opacity="0.22"/><line x1="13.4" y1="59.7" x2="-3.3" y2="119.1" stroke="#9fb6c8" stroke-width="1.4" opacity="0.08"/><line x1="385.3" y1="177.2" x2="378.9" y2="199.9" stroke="#9fb6c8" stroke-width="1.4" opacity="0.15"/><line x1="466.4" y1="507.9" x2="459.0" y2="534.4" stroke="#9fb6c8" stroke-width="1.4" opacity="0.13"/><line x1="185.5" y1="85.8" x2="172.9" y2="130.6" stroke="#9fb6c8" stroke-width="1.4" opacity="0.09"/><line x1="194.7" y1="385.6" x2="180.9" y2="434.8" stroke="#9fb6c8" stroke-width="1.4" opacity="0.17"/><line x1="-6.5" y1="154.7" x2="-14.0" y2="181.6" stroke="#9fb6c8" stroke-width="1.4" opacity="0.11"/><line x1="-13.3" y1="411.0" x2="-25.2" y2="453.4" stroke="#9fb6c8" stroke-width="1.4" opacity="0.22"/><line x1="294.4" y1="94.5" x2="278.6" y2="151.1" stroke="#9fb6c8" stroke-width="1.4" opacity="0.20"/>
<ellipse cx="256" cy="330" rx="150" ry="22" fill="#ffb020" opacity=".08"/>
</g>
<circle cx="256" cy="236" r="208" fill="none" stroke="#ffb020" stroke-width="6" filter="url(#glow)"/><circle cx="256" cy="236" r="190" fill="none" stroke="#ffb020" stroke-width="1.5" opacity=".5"/><line x1="256.0" y1="40.0" x2="256.0" y2="54.0" stroke="#ffb020" stroke-width="2" opacity=".55"/><line x1="306.7" y1="46.7" x2="308.8" y2="39.0" stroke="#ffb020" stroke-width="2" opacity=".55"/><line x1="354.0" y1="66.3" x2="358.0" y2="59.3" stroke="#ffb020" stroke-width="2" opacity=".55"/><line x1="452.0" y1="236.0" x2="438.0" y2="236.0" stroke="#ffb020" stroke-width="2" opacity=".55"/><line x1="445.3" y1="286.7" x2="453.0" y2="288.8" stroke="#ffb020" stroke-width="2" opacity=".55"/><line x1="425.7" y1="334.0" x2="432.7" y2="338.0" stroke="#ffb020" stroke-width="2" opacity=".55"/><line x1="394.6" y1="374.6" x2="384.7" y2="364.7" stroke="#ffb020" stroke-width="2" opacity=".55"/><line x1="354.0" y1="405.7" x2="358.0" y2="412.7" stroke="#ffb020" stroke-width="2" opacity=".55"/><line x1="306.7" y1="425.3" x2="308.8" y2="433.0" stroke="#ffb020" stroke-width="2" opacity=".55"/><line x1="256.0" y1="432.0" x2="256.0" y2="418.0" stroke="#ffb020" stroke-width="2" opacity=".55"/><line x1="205.3" y1="425.3" x2="203.2" y2="433.0" stroke="#ffb020" stroke-width="2" opacity=".55"/><line x1="158.0" y1="405.7" x2="154.0" y2="412.7" stroke="#ffb020" stroke-width="2" opacity=".55"/><line x1="117.4" y1="374.6" x2="127.3" y2="364.7" stroke="#ffb020" stroke-width="2" opacity=".55"/><line x1="86.3" y1="334.0" x2="79.3" y2="338.0" stroke="#ffb020" stroke-width="2" opacity=".55"/><line x1="66.7" y1="286.7" x2="59.0" y2="288.8" stroke="#ffb020" stroke-width="2" opacity=".55"/><line x1="60.0" y1="236.0" x2="74.0" y2="236.0" stroke="#ffb020" stroke-width="2" opacity=".55"/><line x1="66.7" y1="185.3" x2="59.0" y2="183.2" stroke="#ffb020" stroke-width="2" opacity=".55"/><line x1="86.3" y1="138.0" x2="79.3" y2="134.0" stroke="#ffb020" stroke-width="2" opacity=".55"/><line x1="117.4" y1="97.4" x2="127.3" y2="107.3" stroke="#ffb020" stroke-width="2" opacity=".55"/><line x1="158.0" y1="66.3" x2="154.0" y2="59.3" stroke="#ffb020" stroke-width="2" opacity=".55"/><line x1="205.3" y1="46.7" x2="203.2" y2="39.0" stroke="#ffb020" stroke-width="2" opacity=".55"/>

<g transform="translate(256 226) scale(1.8)" filter="url(#soft)"><g transform="translate(-26,6) scale(1.05)"><rect class="g" x="-16" y="-46" width="32" height="70" rx="6"/><rect class="g" x="-18" y="24" width="36" height="22" rx="3"/><line class="d" x1="-18" y1="32" x2="18" y2="32"/><path class="s" d="M-8,-20 L8,0 M8,-20 L-8,0"/></g><g transform="translate(26,6) scale(1.05)"><rect class="g" x="-16" y="-46" width="32" height="70" rx="6"/><rect class="g" x="-18" y="24" width="36" height="22" rx="3"/><line class="d" x1="-18" y1="32" x2="18" y2="32"/><path class="s" d="M-8,-20 L8,0 M8,-20 L-8,0"/></g></g>
<g>
<path d="M66,402 L446,402 L462,424 L446,446 L66,446 L50,424 Z" fill="#07080c" stroke="#ffb020" stroke-width="3"/>
<text x="256" y="437" text-anchor="middle" font-family="Bebas Neue, Oswald, Impact, 'Arial Narrow', sans-serif" font-size="36" letter-spacing="2" fill="#f1ede4">FRAG SHELLS</text>
</g>
<text x="256" y="472" text-anchor="middle" font-family="Courier New, monospace" font-size="13" letter-spacing="4" fill="#ffb020" opacity=".8">AMM-006 // BAY CITY</text>
</svg>