<svg xmlns="http://www.w3.org/2000/svg" viewBox="0 0 512 512" width="512" height="512">
<defs>
<radialGradient id="bg" cx="50%" cy="38%" r="70%"><stop offset="0" stop-color="#1a1f2b"/><stop offset=".55" stop-color="#0b0d13"/><stop offset="1" stop-color="#030305"/></radialGradient>
<linearGradient id="haze" x1="0" y1="0" x2="0" y2="1"><stop offset="0" stop-color="#ff4fd8" stop-opacity=".16"/><stop offset=".5" stop-color="#ff4fd8" stop-opacity="0"/><stop offset="1" stop-color="#32c7d6" stop-opacity=".14"/></linearGradient>
<filter id="glow" x="-30%" y="-30%" width="160%" height="160%"><feGaussianBlur stdDeviation="5" result="b"/><feMerge><feMergeNode in="b"/><feMergeNode in="SourceGraphic"/></feMerge></filter>
<filter id="soft" x="-30%" y="-30%" width="160%" height="160%"><feGaussianBlur stdDeviation="2.2" result="b"/><feMerge><feMergeNode in="b"/><feMergeNode in="b"/><feMergeNode in="SourceGraphic"/></feMerge></filter>
<clipPath id="clip"><circle cx="256" cy="236" r="208"/></clipPath>
<style>.g{fill:#0d1018;stroke:#32c7d6;stroke-width:4.5;stroke-linejoin:round;stroke-linecap:round}.s{fill:none;stroke:#32c7d6;stroke-width:4.5;stroke-linejoin:round;stroke-linecap:round}.f{fill:#32c7d6;stroke:none}.d{fill:none;stroke:#32c7d6;stroke-width:2;opacity:.55;stroke-linecap:round}</style>
</defs>
<g clip-path="url(#clip)">
<rect width="512" height="512" fill="url(#bg)"/>
<rect width="512" height="512" fill="url(#haze)"/>
<g opacity=".5"><line x1="0" y1="6" x2="512" y2="6" stroke="#ffffff" stroke-width="1" opacity=".035"/><line x1="0" y1="12" x2="512" y2="12" stroke="#ffffff" stroke-width="1" opacity=".035"/><line x1="0" y1="18" x2="512" y2="18" stroke="#ffffff" stroke-width="1" opacity=".035"/><line x1="0" y1="24" x2="512" y2="24" stroke="#ffffff" stroke-width="1" opacity=".035"/><line x1="0" y1="30" x2="512" y2="30" stroke="#ffffff" stroke-width="1" opacity=".035"/><line x1="0" y1="36" x2="512" y2="36" stroke="#ffffff" stroke-width="1" opacity=".035"/><line x1="0" y1="42" x2="512" y2="42" stroke="#ffffff" stroke-width="1" opacity=".035"/><line x1="0" y1="48" x2="512" y2="48" stroke="#ffffff" stroke-width="1" opacity=".035"/><line x1="0" y1="54" x2="512" y2="54" stroke="#ffffff" stroke-width="1" opacity=".035"/><line x1="0" y1="60" x2="512" y2="60" stroke="#ffffff" stroke-width="1" opacity=".035"/><line x1="0" y1="66" x2="512" y2="66" stroke="#ffffff" stroke-width="1" opacity=".035"/><line x1="0" y1="72" x2="512" y2="72" stroke="#ffffff" stroke-width="1" opacity=".035"/><line x1="0" y1="78" x2="512" y2="78" stroke="#ffffff" stroke-width="1" opacity=".035"/><line x1="0" y1="84" x2="512" y2="84" stroke="#ffffff" stroke-width="1" opacity=".035"/><line x1="0" y1="90" x2="512" y2="90" stroke="#ffffff" stroke-width="1" opacity=".035"/><line x1="0" y1="96" x2="512" y2="96" stroke="#ffffff" stroke-width="1" opacity=".035"/><line x1="0" y1="102" x2="512" y2="102" stroke="#ffffff" stroke-width="1" opacity=".035"/><line x1="0" y1="108" x2="512" y2="108" stroke="#ffffff" stroke-width="1" opacity=".035"/><line x1="0" y1="114" x2="512" y2="114" stroke="#ffffff" stroke-width="1" opacity=".035"/><line x1="0" y1="120" x2="512" y2="120" stroke="#ffffff" stroke-width="1" opacity=".035"/><line x1="0" y1="126" x2="512" y2="126" stroke="#ffffff" stroke-width="1" opacity=".035"/><line x1="0" y1="132" x2="512" y2="132" stroke="#ffffff" stroke-width="1" opacity=".035"/><line x1="0" y1="138" x2="512" y2="138" stroke="#ffffff" stroke-width="1" opacity=".035"/><line x1="0" y1="144" x2="512" y2="144" stroke="#ffffff" stroke-width="1" opacity=".035"/><line x1="0" y1="150" x2="512" y2="150" stroke="#ffffff" stroke-width="1" opacity=".035"/><line x1="0" y1="156" x2="512" y2="156" stroke="#ffffff" stroke-width="1" opacity=".035"/><line x1="0" y1="162" x2="512" y2="162" stroke="#ffffff" stroke-width="1" opacity=".035"/><line x1="0" y1="168" x2="512" y2="168" stroke="#ffffff" stroke-width="1" opacity=".035"/><line x1="0" y1="174" x2="512" y2="174" stroke="#ffffff" stroke-width="1" opacity=".035"/><line x1="0" y1="180" x2="512" y2="180" stroke="#ffffff" stroke-width="1" opacity=".035"/><line x1="0" y1="186" x2="512" y2="186" stroke="#ffffff" stroke-width="1" opacity=".035"/><line x1="0" y1="192" x2="512" y2="192" stroke="#ffffff" stroke-width="1" opacity=".035"/><line x1="0" y1="198" x2="512" y2="198" stroke="#ffffff" stroke-width="1" opacity=".035"/><line x1="0" y1="204" x2="512" y2="204" stroke="#ffffff" stroke-width="1" opacity=".035"/><line x1="0" y1="210" x2="512" y2="210" stroke="#ffffff" stroke-width="1" opacity=".035"/><line x1="0" y1="216" x2="512" y2="216" stroke="#ffffff" stroke-width="1" opacity=".035"/><line x1="0" y1="222" x2="512" y2="222" stroke="#ffffff" stroke-width="1" opacity=".035"/><line x1="0" y1="228" x2="512" y2="228" stroke="#ffffff" stroke-width="1" opacity=".035"/><line x1="0" y1="234" x2="512" y2="234" stroke="#ffffff" stroke-width="1" opacity=".035"/><line x1="0" y1="240" x2="512" y2="240" stroke="#ffffff" stroke-width="1" opacity=".035"/><line x1="0" y1="246" x2="512" y2="246" stroke="#ffffff" stroke-width="1" opacity=".035"/><line x1="0" y1="252" x2="512" y2="252" stroke="#ffffff" stroke-width="1" opacity=".035"/><line x1="0" y1="258" x2="512" y2="258" stroke="#ffffff" stroke-width="1" opacity=".035"/><line x1="0" y1="264" x2="512" y2="264" stroke="#ffffff" stroke-width="1" opacity=".035"/><line x1="0" y1="270" x2="512" y2="270" stroke="#ffffff" stroke-width="1" opacity=".035"/><line x1="0" y1="276" x2="512" y2="276" stroke="#ffffff" stroke-width="1" opacity=".035"/><line x1="0" y1="282" x2="512" y2="282" stroke="#ffffff" stroke-width="1" opacity=".035"/><line x1="0" y1="288" x2="512" y2="288" stroke="#ffffff" stroke-width="1" opacity=".035"/><line x1="0" y1="294" x2="512" y2="294" stroke="#ffffff" stroke-width="1" opacity=".035"/><line x1="0" y1="300" x2="512" y2="300" stroke="#ffffff" stroke-width="1" opacity=".035"/><line x1="0" y1="306" x2="512" y2="306" stroke="#ffffff" stroke-width="1" opacity=".035"/><line x1="0" y1="312" x2="512" y2="312" stroke="#ffffff" stroke-width="1" opacity=".035"/><line x1="0" y1="318" x2="512" y2="318" stroke="#ffffff" stroke-width="1" opacity=".035"/><line x1="0" y1="324" x2="512" y2="324" stroke="#ffffff" stroke-width="1" opacity=".035"/><line x1="0" y1="330" x2="512" y2="330" stroke="#ffffff" stroke-width="1" opacity=".035"/><line x1="0" y1="336" x2="512" y2="336" stroke="#ffffff" stroke-width="1" opacity=".035"/><line x1="0" y1="342" x2="512" y2="342" stroke="#ffffff" stroke-width="1" opacity=".035"/><line x1="0" y1="348" x2="512" y2="348" stroke="#ffffff" stroke-width="1" opacity=".035"/><line x1="0" y1="354" x2="512" y2="354" stroke="#ffffff" stroke-width="1" opacity=".035"/><line x1="0" y1="360" x2="512" y2="360" stroke="#ffffff" stroke-width="1" opacity=".035"/><line x1="0" y1="366" x2="512" y2="366" stroke="#ffffff" stroke-width="1" opacity=".035"/><line x1="0" y1="372" x2="512" y2="372" stroke="#ffffff" stroke-width="1" opacity=".035"/><line x1="0" y1="378" x2="512" y2="378" stroke="#ffffff" stroke-width="1" opacity=".035"/><line x1="0" y1="384" x2="512" y2="384" stroke="#ffffff" stroke-width="1" opacity=".035"/><line x1="0" y1="390" x2="512" y2="390" stroke="#ffffff" stroke-width="1" opacity=".035"/><line x1="0" y1="396" x2="512" y2="396" stroke="#ffffff" stroke-width="1" opacity=".035"/><line x1="0" y1="402" x2="512" y2="402" stroke="#ffffff" stroke-width="1" opacity=".035"/><line x1="0" y1="408" x2="512" y2="408" stroke="#ffffff" stroke-width="1" opacity=".035"/><line x1="0" y1="414" x2="512" y2="414" stroke="#ffffff" stroke-width="1" opacity=".035"/><line x1="0" y1="420" x2="512" y2="420" stroke="#ffffff" stroke-width="1" opacity=".035"/><line x1="0" y1="426" x2="512" y2="426" stroke="#ffffff" stroke-width="1" opacity=".035"/><line x1="0" y1="432" x2="512" y2="432" stroke="#ffffff" stroke-width="1" opacity=".035"/><line x1="0" y1="438" x2="512" y2="438" stroke="#ffffff" stroke-width="1" opacity=".035"/><line x1="0" y1="444" x2="512" y2="444" stroke="#ffffff" stroke-width="1" opacity=".035"/><line x1="0" y1="450" x2="512" y2="450" stroke="#ffffff" stroke-width="1" opacity=".035"/><line x1="0" y1="456" x2="512" y2="456" stroke="#ffffff" stroke-width="1" opacity=".035"/><line x1="0" y1="462" x2="512" y2="462" stroke="#ffffff" stroke-width="1" opacity=".035"/><line x1="0" y1="468" x2="512" y2="468" stroke="#ffffff" stroke-width="1" opacity=".035"/><line x1="0" y1="474" x2="512" y2="474" stroke="#ffffff" stroke-width="1" opacity=".035"/><line x1="0" y1="480" x2="512" y2="480" stroke="#ffffff" stroke-width="1" opacity=".035"/><line x1="0" y1="486" x2="512" y2="486" stroke="#ffffff" stroke-width="1" opacity=".035"/><line x1="0" y1="492" x2="512" y2="492" stroke="#ffffff" stroke-width="1" opacity=".035"/><line x1="0" y1="498" x2="512" y2="498" stroke="#ffffff" stroke-width="1" opacity=".035"/><line x1="0" y1="504" x2="512" y2="504" stroke="#ffffff" stroke-width="1" opacity=".035"/><line x1="0" y1="510" x2="512" y2="510" stroke="#ffffff" stroke-width="1" opacity=".035"/></g>
<line x1="362.1" y1="300.6" x2="355.3" y2="325.1" stroke="#9fb6c8" stroke-width="1.4" opacity="0.18"/><line x1="-3.3" y1="340.5" x2="-13.9" y2="378.6" stroke="#9fb6c8" stroke-width="1.4" opacity="0.19"/><line x1="456.3" y1="450.8" x2="446.5" y2="485.8" stroke="#9fb6c8" stroke-width="1.4" opacity="0.18"/><line x1="-16.7" y1="484.8" x2="-27.2" y2="522.1" stroke="#9fb6c8" stroke-width="1.4" opacity="0.15"/><line x1="465.7" y1="185.3" x2="458.3" y2="211.6" stroke="#9fb6c8" stroke-width="1.4" opacity="0.11"/><line x1="489.9" y1="457.8" x2="479.4" y2="495.2" stroke="#9fb6c8" stroke-width="1.4" opacity="0.09"/><line x1="505.0" y1="349.7" x2="493.1" y2="392.0" stroke="#9fb6c8" stroke-width="1.4" opacity="0.18"/><line x1="358.7" y1="181.9" x2="352.6" y2="203.8" stroke="#9fb6c8" stroke-width="1.4" opacity="0.22"/><line x1="398.0" y1="55.8" x2="383.7" y2="106.8" stroke="#9fb6c8" stroke-width="1.4" opacity="0.21"/><line x1="527.4" y1="270.6" x2="517.2" y2="306.9" stroke="#9fb6c8" stroke-width="1.4" opacity="0.17"/><line x1="530.9" y1="136.7" x2="517.3" y2="185.4" stroke="#9fb6c8" stroke-width="1.4" opacity="0.16"/><line x1="124.3" y1="175.3" x2="118.0" y2="197.6" stroke="#9fb6c8" stroke-width="1.4" opacity="0.08"/><line x1="337.7" y1="73.4" x2="326.9" y2="112.1" stroke="#9fb6c8" stroke-width="1.4" opacity="0.21"/><line x1="492.1" y1="73.8" x2="477.4" y2="126.4" stroke="#9fb6c8" stroke-width="1.4" opacity="0.06"/><line x1="147.0" y1="210.4" x2="139.9" y2="235.8" stroke="#9fb6c8" stroke-width="1.4" opacity="0.11"/><line x1="295.1" y1="129.1" x2="288.1" y2="154.2" stroke="#9fb6c8" stroke-width="1.4" opacity="0.19"/><line x1="426.9" y1="85.9" x2="419.2" y2="113.3" stroke="#9fb6c8" stroke-width="1.4" opacity="0.21"/><line x1="287.9" y1="50.1" x2="271.8" y2="107.5" stroke="#9fb6c8" stroke-width="1.4" opacity="0.15"/><line x1="177.2" y1="168.4" x2="169.8" y2="194.7" stroke="#9fb6c8" stroke-width="1.4" opacity="0.18"/><line x1="207.1" y1="407.0" x2="191.4" y2="463.2" stroke="#9fb6c8" stroke-width="1.4" opacity="0.10"/><line x1="274.5" y1="216.1" x2="258.9" y2="271.8" stroke="#9fb6c8" stroke-width="1.4" opacity="0.11"/><line x1="492.2" y1="112.3" x2="475.7" y2="171.3" stroke="#9fb6c8" stroke-width="1.4" opacity="0.06"/><line x1="513.6" y1="5.5" x2="500.6" y2="51.9" stroke="#9fb6c8" stroke-width="1.4" opacity="0.20"/><line x1="330.1" y1="502.9" x2="324.5" y2="522.7" stroke="#9fb6c8" stroke-width="1.4" opacity="0.14"/><line x1="199.6" y1="224.9" x2="183.2" y2="283.4" stroke="#9fb6c8" stroke-width="1.4" opacity="0.20"/><line x1="378.2" y1="515.1" x2="368.3" y2="550.6" stroke="#9fb6c8" stroke-width="1.4" opacity="0.13"/><line x1="21.7" y1="45.0" x2="6.3" y2="100.3" stroke="#9fb6c8" stroke-width="1.4" opacity="0.13"/><line x1="140.0" y1="136.0" x2="126.4" y2="184.7" stroke="#9fb6c8" stroke-width="1.4" opacity="0.16"/><line x1="176.6" y1="260.8" x2="159.9" y2="320.5" stroke="#9fb6c8" stroke-width="1.4" opacity="0.20"/><line x1="359.1" y1="514.7" x2="350.3" y2="546.1" stroke="#9fb6c8" stroke-width="1.4" opacity="0.06"/><line x1="149.0" y1="61.1" x2="141.3" y2="88.6" stroke="#9fb6c8" stroke-width="1.4" opacity="0.13"/><line x1="286.2" y1="104.9" x2="270.8" y2="159.7" stroke="#9fb6c8" stroke-width="1.4" opacity="0.08"/><line x1="312.5" y1="518.7" x2="305.1" y2="545.4" stroke="#9fb6c8" stroke-width="1.4" opacity="0.12"/><line x1="45.5" y1="266.2" x2="38.1" y2="292.4" stroke="#9fb6c8" stroke-width="1.4" opacity="0.12"/>
<ellipse cx="256" cy="330" rx="150" ry="22" fill="#32c7d6" opacity=".08"/>
</g>
<circle cx="256" cy="236" r="208" fill="none" stroke="#32c7d6" stroke-width="6" filter="url(#glow)"/><circle cx="256" cy="236" r="190" fill="none" stroke="#32c7d6" stroke-width="1.5" opacity=".5"/><line x1="256.0" y1="40.0" x2="256.0" y2="54.0" stroke="#32c7d6" stroke-width="2" opacity=".55"/><line x1="306.7" y1="46.7" x2="308.8" y2="39.0" stroke="#32c7d6" stroke-width="2" opacity=".55"/><line x1="354.0" y1="66.3" x2="358.0" y2="59.3" stroke="#32c7d6" stroke-width="2" opacity=".55"/><line x1="394.6" y1="97.4" x2="384.7" y2="107.3" stroke="#32c7d6" stroke-width="2" opacity=".55"/><line x1="425.7" y1="138.0" x2="432.7" y2="134.0" stroke="#32c7d6" stroke-width="2" opacity=".55"/><line x1="445.3" y1="185.3" x2="453.0" y2="183.2" stroke="#32c7d6" stroke-width="2" opacity=".55"/><line x1="452.0" y1="236.0" x2="438.0" y2="236.0" stroke="#32c7d6" stroke-width="2" opacity=".55"/><line x1="445.3" y1="286.7" x2="453.0" y2="288.8" stroke="#32c7d6" stroke-width="2" opacity=".55"/><line x1="425.7" y1="334.0" x2="432.7" y2="338.0" stroke="#32c7d6" stroke-width="2" opacity=".55"/><line x1="394.6" y1="374.6" x2="384.7" y2="364.7" stroke="#32c7d6" stroke-width="2" opacity=".55"/><line x1="354.0" y1="405.7" x2="358.0" y2="412.7" stroke="#32c7d6" stroke-width="2" opacity=".55"/><line x1="306.7" y1="425.3" x2="308.8" y2="433.0" stroke="#32c7d6" stroke-width="2" opacity=".55"/><line x1="256.0" y1="432.0" x2="256.0" y2="418.0" stroke="#32c7d6" stroke-width="2" opacity=".55"/><line x1="205.3" y1="425.3" x2="203.2" y2="433.0" stroke="#32c7d6" stroke-width="2" opacity=".55"/><line x1="158.0" y1="405.7" x2="154.0" y2="412.7" stroke="#32c7d6" stroke-width="2" opacity=".55"/><line x1="117.4" y1="374.6" x2="127.3" y2="364.7" stroke="#32c7d6" stroke-width="2" opacity=".55"/><line x1="86.3" y1="334.0" x2="79.3" y2="338.0" stroke="#32c7d6" stroke-width="2" opacity=".55"/><line x1="66.7" y1="286.7" x2="59.0" y2="288.8" stroke="#32c7d6" stroke-width="2" opacity=".55"/><line x1="60.0" y1="236.0" x2="74.0" y2="236.0" stroke="#32c7d6" stroke-width="2" opacity=".55"/><line x1="66.7" y1="185.3" x2="59.0" y2="183.2" stroke="#32c7d6" stroke-width="2" opacity=".55"/><line x1="205.3" y1="46.7" x2="203.2" y2="39.0" stroke="#32c7d6" stroke-width="2" opacity=".55"/>

<g transform="translate(256 226) scale(1.68)" filter="url(#soft)"><path class="s" d="M-40,-80 L-30,60 M40,-80 L30,60"/><path class="s" d="M-46,-10 L46,-10"/><rect class="g" x="-14" y="-22" width="28" height="24" rx="4"/><path class="s" d="M-74,40 L-64,20 L-54,40 M-74,64 L-64,44 L-54,64 M54,40 L64,20 L74,40 M54,64 L64,44 L74,64"/><path class="s" d="M-40,60 Q0,90 40,60"/></g>
<g>
<path d="M66,402 L446,402 L462,424 L446,446 L66,446 L50,424 Z" fill="#07080c" stroke="#32c7d6" stroke-width="3"/>
<text x="256" y="437" text-anchor="middle" font-family="Bebas Neue, Oswald, Impact, 'Arial Narrow', sans-serif" font-size="36" letter-spacing="2" fill="#f1ede4">GRAV-HARNESS</text>
</g>
<text x="256" y="472" text-anchor="middle" font-family="Courier New, monospace" font-size="13" letter-spacing="4" fill="#32c7d6" opacity=".8">EQP-009 // BAY CITY</text>
</svg>