<svg xmlns="http://www.w3.org/2000/svg" viewBox="0 0 512 512" width="512" height="512">
<defs>
<radialGradient id="bg" cx="50%" cy="38%" r="70%"><stop offset="0" stop-color="#1a1f2b"/><stop offset=".55" stop-color="#0b0d13"/><stop offset="1" stop-color="#030305"/></radialGradient>
<linearGradient id="haze" x1="0" y1="0" x2="0" y2="1"><stop offset="0" stop-color="#ff4fd8" stop-opacity=".16"/><stop offset=".5" stop-color="#ff4fd8" stop-opacity="0"/><stop offset="1" stop-color="#b48cff" stop-opacity=".14"/></linearGradient>
<filter id="glow" x="-30%" y="-30%" width="160%" height="160%"><feGaussianBlur stdDeviation="5" result="b"/><feMerge><feMergeNode in="b"/><feMergeNode in="SourceGraphic"/></feMerge></filter>
<filter id="soft" x="-30%" y="-30%" width="160%" height="160%"><feGaussianBlur stdDeviation="2.2" result="b"/><feMerge><feMergeNode in="b"/><feMergeNode in="b"/><feMergeNode in="SourceGraphic"/></feMerge></filter>
<clipPath id="clip"><circle cx="256" cy="236" r="208"/></clipPath>
<style>.g{fill:#0d1018;stroke:#b48cff;stroke-width:4.5;stroke-linejoin:round;stroke-linecap:round}.s{fill:none;stroke:#b48cff;stroke-width:4.5;stroke-linejoin:round;stroke-linecap:round}.f{fill:#b48cff;stroke:none}.d{fill:none;stroke:#b48cff;stroke-width:2;opacity:.55;stroke-linecap:round}</style>
</defs>
<g clip-path="url(#clip)">
<rect width="512" height="512" fill="url(#bg)"/>
<rect width="512" height="512" fill="url(#haze)"/>
<g opacity=".5"><line x1="0" y1="6" x2="512" y2="6" stroke="#ffffff" stroke-width="1" opacity=".035"/><line x1="0" y1="12" x2="512" y2="12" stroke="#ffffff" stroke-width="1" opacity=".035"/><line x1="0" y1="18" x2="512" y2="18" stroke="#ffffff" stroke-width="1" opacity=".035"/><line x1="0" y1="24" x2="512" y2="24" stroke="#ffffff" stroke-width="1" opacity=".035"/><line x1="0" y1="30" x2="512" y2="30" stroke="#ffffff" stroke-width="1" opacity=".035"/><line x1="0" y1="36" x2="512" y2="36" stroke="#ffffff" stroke-width="1" opacity=".035"/><line x1="0" y1="42" x2="512" y2="42" stroke="#ffffff" stroke-width="1" opacity=".035"/><line x1="0" y1="48" x2="512" y2="48" stroke="#ffffff" stroke-width="1" opacity=".035"/><line x1="0" y1="54" x2="512" y2="54" stroke="#ffffff" stroke-width="1" opacity=".035"/><line x1="0" y1="60" x2="512" y2="60" stroke="#ffffff" stroke-width="1" opacity=".035"/><line x1="0" y1="66" x2="512" y2="66" stroke="#ffffff" stroke-width="1" opacity=".035"/><line x1="0" y1="72" x2="512" y2="72" stroke="#ffffff" stroke-width="1" opacity=".035"/><line x1="0" y1="78" x2="512" y2="78" stroke="#ffffff" stroke-width="1" opacity=".035"/><line x1="0" y1="84" x2="512" y2="84" stroke="#ffffff" stroke-width="1" opacity=".035"/><line x1="0" y1="90" x2="512" y2="90" stroke="#ffffff" stroke-width="1" opacity=".035"/><line x1="0" y1="96" x2="512" y2="96" stroke="#ffffff" stroke-width="1" opacity=".035"/><line x1="0" y1="102" x2="512" y2="102" stroke="#ffffff" stroke-width="1" opacity=".035"/><line x1="0" y1="108" x2="512" y2="108" stroke="#ffffff" stroke-width="1" opacity=".035"/><line x1="0" y1="114" x2="512" y2="114" stroke="#ffffff" stroke-width="1" opacity=".035"/><line x1="0" y1="120" x2="512" y2="120" stroke="#ffffff" stroke-width="1" opacity=".035"/><line x1="0" y1="126" x2="512" y2="126" stroke="#ffffff" stroke-width="1" opacity=".035"/><line x1="0" y1="132" x2="512" y2="132" stroke="#ffffff" stroke-width="1" opacity=".035"/><line x1="0" y1="138" x2="512" y2="138" stroke="#ffffff" stroke-width="1" opacity=".035"/><line x1="0" y1="144" x2="512" y2="144" stroke="#ffffff" stroke-width="1" opacity=".035"/><line x1="0" y1="150" x2="512" y2="150" stroke="#ffffff" stroke-width="1" opacity=".035"/><line x1="0" y1="156" x2="512" y2="156" stroke="#ffffff" stroke-width="1" opacity=".035"/><line x1="0" y1="162" x2="512" y2="162" stroke="#ffffff" stroke-width="1" opacity=".035"/><line x1="0" y1="168" x2="512" y2="168" stroke="#ffffff" stroke-width="1" opacity=".035"/><line x1="0" y1="174" x2="512" y2="174" stroke="#ffffff" stroke-width="1" opacity=".035"/><line x1="0" y1="180" x2="512" y2="180" stroke="#ffffff" stroke-width="1" opacity=".035"/><line x1="0" y1="186" x2="512" y2="186" stroke="#ffffff" stroke-width="1" opacity=".035"/><line x1="0" y1="192" x2="512" y2="192" stroke="#ffffff" stroke-width="1" opacity=".035"/><line x1="0" y1="198" x2="512" y2="198" stroke="#ffffff" stroke-width="1" opacity=".035"/><line x1="0" y1="204" x2="512" y2="204" stroke="#ffffff" stroke-width="1" opacity=".035"/><line x1="0" y1="210" x2="512" y2="210" stroke="#ffffff" stroke-width="1" opacity=".035"/><line x1="0" y1="216" x2="512" y2="216" stroke="#ffffff" stroke-width="1" opacity=".035"/><line x1="0" y1="222" x2="512" y2="222" stroke="#ffffff" stroke-width="1" opacity=".035"/><line x1="0" y1="228" x2="512" y2="228" stroke="#ffffff" stroke-width="1" opacity=".035"/><line x1="0" y1="234" x2="512" y2="234" stroke="#ffffff" stroke-width="1" opacity=".035"/><line x1="0" y1="240" x2="512" y2="240" stroke="#ffffff" stroke-width="1" opacity=".035"/><line x1="0" y1="246" x2="512" y2="246" stroke="#ffffff" stroke-width="1" opacity=".035"/><line x1="0" y1="252" x2="512" y2="252" stroke="#ffffff" stroke-width="1" opacity=".035"/><line x1="0" y1="258" x2="512" y2="258" stroke="#ffffff" stroke-width="1" opacity=".035"/><line x1="0" y1="264" x2="512" y2="264" stroke="#ffffff" stroke-width="1" opacity=".035"/><line x1="0" y1="270" x2="512" y2="270" stroke="#ffffff" stroke-width="1" opacity=".035"/><line x1="0" y1="276" x2="512" y2="276" stroke="#ffffff" stroke-width="1" opacity=".035"/><line x1="0" y1="282" x2="512" y2="282" stroke="#ffffff" stroke-width="1" opacity=".035"/><line x1="0" y1="288" x2="512" y2="288" stroke="#ffffff" stroke-width="1" opacity=".035"/><line x1="0" y1="294" x2="512" y2="294" stroke="#ffffff" stroke-width="1" opacity=".035"/><line x1="0" y1="300" x2="512" y2="300" stroke="#ffffff" stroke-width="1" opacity=".035"/><line x1="0" y1="306" x2="512" y2="306" stroke="#ffffff" stroke-width="1" opacity=".035"/><line x1="0" y1="312" x2="512" y2="312" stroke="#ffffff" stroke-width="1" opacity=".035"/><line x1="0" y1="318" x2="512" y2="318" stroke="#ffffff" stroke-width="1" opacity=".035"/><line x1="0" y1="324" x2="512" y2="324" stroke="#ffffff" stroke-width="1" opacity=".035"/><line x1="0" y1="330" x2="512" y2="330" stroke="#ffffff" stroke-width="1" opacity=".035"/><line x1="0" y1="336" x2="512" y2="336" stroke="#ffffff" stroke-width="1" opacity=".035"/><line x1="0" y1="342" x2="512" y2="342" stroke="#ffffff" stroke-width="1" opacity=".035"/><line x1="0" y1="348" x2="512" y2="348" stroke="#ffffff" stroke-width="1" opacity=".035"/><line x1="0" y1="354" x2="512" y2="354" stroke="#ffffff" stroke-width="1" opacity=".035"/><line x1="0" y1="360" x2="512" y2="360" stroke="#ffffff" stroke-width="1" opacity=".035"/><line x1="0" y1="366" x2="512" y2="366" stroke="#ffffff" stroke-width="1" opacity=".035"/><line x1="0" y1="372" x2="512" y2="372" stroke="#ffffff" stroke-width="1" opacity=".035"/><line x1="0" y1="378" x2="512" y2="378" stroke="#ffffff" stroke-width="1" opacity=".035"/><line x1="0" y1="384" x2="512" y2="384" stroke="#ffffff" stroke-width="1" opacity=".035"/><line x1="0" y1="390" x2="512" y2="390" stroke="#ffffff" stroke-width="1" opacity=".035"/><line x1="0" y1="396" x2="512" y2="396" stroke="#ffffff" stroke-width="1" opacity=".035"/><line x1="0" y1="402" x2="512" y2="402" stroke="#ffffff" stroke-width="1" opacity=".035"/><line x1="0" y1="408" x2="512" y2="408" stroke="#ffffff" stroke-width="1" opacity=".035"/><line x1="0" y1="414" x2="512" y2="414" stroke="#ffffff" stroke-width="1" opacity=".035"/><line x1="0" y1="420" x2="512" y2="420" stroke="#ffffff" stroke-width="1" opacity=".035"/><line x1="0" y1="426" x2="512" y2="426" stroke="#ffffff" stroke-width="1" opacity=".035"/><line x1="0" y1="432" x2="512" y2="432" stroke="#ffffff" stroke-width="1" opacity=".035"/><line x1="0" y1="438" x2="512" y2="438" stroke="#ffffff" stroke-width="1" opacity=".035"/><line x1="0" y1="444" x2="512" y2="444" stroke="#ffffff" stroke-width="1" opacity=".035"/><line x1="0" y1="450" x2="512" y2="450" stroke="#ffffff" stroke-width="1" opacity=".035"/><line x1="0" y1="456" x2="512" y2="456" stroke="#ffffff" stroke-width="1" opacity=".035"/><line x1="0" y1="462" x2="512" y2="462" stroke="#ffffff" stroke-width="1" opacity=".035"/><line x1="0" y1="468" x2="512" y2="468" stroke="#ffffff" stroke-width="1" opacity=".035"/><line x1="0" y1="474" x2="512" y2="474" stroke="#ffffff" stroke-width="1" opacity=".035"/><line x1="0" y1="480" x2="512" y2="480" stroke="#ffffff" stroke-width="1" opacity=".035"/><line x1="0" y1="486" x2="512" y2="486" stroke="#ffffff" stroke-width="1" opacity=".035"/><line x1="0" y1="492" x2="512" y2="492" stroke="#ffffff" stroke-width="1" opacity=".035"/><line x1="0" y1="498" x2="512" y2="498" stroke="#ffffff" stroke-width="1" opacity=".035"/><line x1="0" y1="504" x2="512" y2="504" stroke="#ffffff" stroke-width="1" opacity=".035"/><line x1="0" y1="510" x2="512" y2="510" stroke="#ffffff" stroke-width="1" opacity=".035"/></g>
<line x1="-4.6" y1="344.2" x2="-19.8" y2="398.6" stroke="#9fb6c8" stroke-width="1.4" opacity="0.15"/><line x1="274.1" y1="103.0" x2="265.2" y2="134.9" stroke="#9fb6c8" stroke-width="1.4" opacity="0.12"/><line x1="452.7" y1="96.1" x2="445.3" y2="122.3" stroke="#9fb6c8" stroke-width="1.4" opacity="0.10"/><line x1="505.3" y1="375.9" x2="493.5" y2="417.7" stroke="#9fb6c8" stroke-width="1.4" opacity="0.07"/><line x1="318.7" y1="478.9" x2="313.4" y2="497.7" stroke="#9fb6c8" stroke-width="1.4" opacity="0.08"/><line x1="-27.5" y1="258.8" x2="-34.0" y2="282.2" stroke="#9fb6c8" stroke-width="1.4" opacity="0.19"/><line x1="20.9" y1="358.6" x2="11.7" y2="391.3" stroke="#9fb6c8" stroke-width="1.4" opacity="0.19"/><line x1="192.3" y1="475.1" x2="187.2" y2="493.5" stroke="#9fb6c8" stroke-width="1.4" opacity="0.18"/><line x1="165.1" y1="89.9" x2="159.7" y2="109.2" stroke="#9fb6c8" stroke-width="1.4" opacity="0.06"/><line x1="358.6" y1="220.9" x2="343.7" y2="274.1" stroke="#9fb6c8" stroke-width="1.4" opacity="0.19"/><line x1="328.5" y1="41.9" x2="319.4" y2="74.4" stroke="#9fb6c8" stroke-width="1.4" opacity="0.22"/><line x1="205.4" y1="80.6" x2="197.2" y2="109.6" stroke="#9fb6c8" stroke-width="1.4" opacity="0.20"/><line x1="319.3" y1="106.5" x2="312.6" y2="130.6" stroke="#9fb6c8" stroke-width="1.4" opacity="0.09"/><line x1="156.1" y1="451.4" x2="144.3" y2="493.6" stroke="#9fb6c8" stroke-width="1.4" opacity="0.18"/><line x1="310.8" y1="210.2" x2="302.1" y2="241.2" stroke="#9fb6c8" stroke-width="1.4" opacity="0.12"/><line x1="331.6" y1="122.1" x2="324.6" y2="147.1" stroke="#9fb6c8" stroke-width="1.4" opacity="0.11"/><line x1="135.1" y1="367.6" x2="121.8" y2="414.9" stroke="#9fb6c8" stroke-width="1.4" opacity="0.12"/><line x1="213.6" y1="479.9" x2="202.9" y2="517.9" stroke="#9fb6c8" stroke-width="1.4" opacity="0.12"/><line x1="520.7" y1="404.5" x2="514.8" y2="425.6" stroke="#9fb6c8" stroke-width="1.4" opacity="0.09"/><line x1="365.8" y1="243.1" x2="353.5" y2="287.2" stroke="#9fb6c8" stroke-width="1.4" opacity="0.17"/><line x1="-20.9" y1="326.8" x2="-29.8" y2="358.6" stroke="#9fb6c8" stroke-width="1.4" opacity="0.12"/><line x1="460.6" y1="446.2" x2="447.1" y2="494.3" stroke="#9fb6c8" stroke-width="1.4" opacity="0.06"/><line x1="156.7" y1="187.4" x2="150.7" y2="208.8" stroke="#9fb6c8" stroke-width="1.4" opacity="0.11"/><line x1="-36.5" y1="236.1" x2="-46.9" y2="273.3" stroke="#9fb6c8" stroke-width="1.4" opacity="0.19"/><line x1="212.8" y1="104.9" x2="201.8" y2="144.0" stroke="#9fb6c8" stroke-width="1.4" opacity="0.18"/><line x1="248.6" y1="438.3" x2="240.3" y2="468.0" stroke="#9fb6c8" stroke-width="1.4" opacity="0.08"/><line x1="480.0" y1="451.4" x2="469.3" y2="489.6" stroke="#9fb6c8" stroke-width="1.4" opacity="0.05"/><line x1="263.8" y1="457.2" x2="253.4" y2="494.2" stroke="#9fb6c8" stroke-width="1.4" opacity="0.13"/><line x1="46.8" y1="337.3" x2="31.4" y2="392.2" stroke="#9fb6c8" stroke-width="1.4" opacity="0.08"/><line x1="-18.3" y1="440.6" x2="-29.3" y2="480.2" stroke="#9fb6c8" stroke-width="1.4" opacity="0.16"/><line x1="131.2" y1="286.2" x2="124.1" y2="311.3" stroke="#9fb6c8" stroke-width="1.4" opacity="0.15"/><line x1="369.6" y1="426.6" x2="358.9" y2="465.0" stroke="#9fb6c8" stroke-width="1.4" opacity="0.15"/><line x1="260.3" y1="69.2" x2="251.5" y2="100.7" stroke="#9fb6c8" stroke-width="1.4" opacity="0.14"/><line x1="56.5" y1="450.4" x2="40.2" y2="508.8" stroke="#9fb6c8" stroke-width="1.4" opacity="0.19"/>
<ellipse cx="256" cy="330" rx="150" ry="22" fill="#b48cff" opacity=".08"/>
</g>
<circle cx="256" cy="236" r="208" fill="none" stroke="#b48cff" stroke-width="6" filter="url(#glow)"/><circle cx="256" cy="236" r="190" fill="none" stroke="#b48cff" stroke-width="1.5" opacity=".5"/><line x1="256.0" y1="40.0" x2="256.0" y2="54.0" stroke="#b48cff" stroke-width="2" opacity=".55"/><line x1="281.6" y1="41.7" x2="282.6" y2="33.7" stroke="#b48cff" stroke-width="2" opacity=".55"/><line x1="425.7" y1="138.0" x2="432.7" y2="134.0" stroke="#b48cff" stroke-width="2" opacity=".55"/><line x1="437.1" y1="161.0" x2="424.1" y2="166.4" stroke="#b48cff" stroke-width="2" opacity=".55"/><line x1="445.3" y1="185.3" x2="453.0" y2="183.2" stroke="#b48cff" stroke-width="2" opacity=".55"/><line x1="450.3" y1="210.4" x2="458.3" y2="209.4" stroke="#b48cff" stroke-width="2" opacity=".55"/><line x1="452.0" y1="236.0" x2="438.0" y2="236.0" stroke="#b48cff" stroke-width="2" opacity=".55"/><line x1="450.3" y1="261.6" x2="458.3" y2="262.6" stroke="#b48cff" stroke-width="2" opacity=".55"/><line x1="445.3" y1="286.7" x2="453.0" y2="288.8" stroke="#b48cff" stroke-width="2" opacity=".55"/><line x1="437.1" y1="311.0" x2="424.1" y2="305.6" stroke="#b48cff" stroke-width="2" opacity=".55"/><line x1="425.7" y1="334.0" x2="432.7" y2="338.0" stroke="#b48cff" stroke-width="2" opacity=".55"/><line x1="411.5" y1="355.3" x2="417.8" y2="360.2" stroke="#b48cff" stroke-width="2" opacity=".55"/><line x1="394.6" y1="374.6" x2="384.7" y2="364.7" stroke="#b48cff" stroke-width="2" opacity=".55"/><line x1="375.3" y1="391.5" x2="380.2" y2="397.8" stroke="#b48cff" stroke-width="2" opacity=".55"/><line x1="354.0" y1="405.7" x2="358.0" y2="412.7" stroke="#b48cff" stroke-width="2" opacity=".55"/><line x1="331.0" y1="417.1" x2="325.6" y2="404.1" stroke="#b48cff" stroke-width="2" opacity=".55"/><line x1="306.7" y1="425.3" x2="308.8" y2="433.0" stroke="#b48cff" stroke-width="2" opacity=".55"/><line x1="281.6" y1="430.3" x2="282.6" y2="438.3" stroke="#b48cff" stroke-width="2" opacity=".55"/><line x1="256.0" y1="432.0" x2="256.0" y2="418.0" stroke="#b48cff" stroke-width="2" opacity=".55"/><line x1="230.4" y1="430.3" x2="229.4" y2="438.3" stroke="#b48cff" stroke-width="2" opacity=".55"/><line x1="205.3" y1="425.3" x2="203.2" y2="433.0" stroke="#b48cff" stroke-width="2" opacity=".55"/><line x1="181.0" y1="417.1" x2="186.4" y2="404.1" stroke="#b48cff" stroke-width="2" opacity=".55"/><line x1="158.0" y1="405.7" x2="154.0" y2="412.7" stroke="#b48cff" stroke-width="2" opacity=".55"/><line x1="136.7" y1="391.5" x2="131.8" y2="397.8" stroke="#b48cff" stroke-width="2" opacity=".55"/><line x1="117.4" y1="374.6" x2="127.3" y2="364.7" stroke="#b48cff" stroke-width="2" opacity=".55"/><line x1="100.5" y1="355.3" x2="94.2" y2="360.2" stroke="#b48cff" stroke-width="2" opacity=".55"/><line x1="86.3" y1="334.0" x2="79.3" y2="338.0" stroke="#b48cff" stroke-width="2" opacity=".55"/><line x1="74.9" y1="311.0" x2="87.9" y2="305.6" stroke="#b48cff" stroke-width="2" opacity=".55"/><line x1="66.7" y1="286.7" x2="59.0" y2="288.8" stroke="#b48cff" stroke-width="2" opacity=".55"/><line x1="61.7" y1="261.6" x2="53.7" y2="262.6" stroke="#b48cff" stroke-width="2" opacity=".55"/><line x1="60.0" y1="236.0" x2="74.0" y2="236.0" stroke="#b48cff" stroke-width="2" opacity=".55"/><line x1="61.7" y1="210.4" x2="53.7" y2="209.4" stroke="#b48cff" stroke-width="2" opacity=".55"/><line x1="66.7" y1="185.3" x2="59.0" y2="183.2" stroke="#b48cff" stroke-width="2" opacity=".55"/><line x1="74.9" y1="161.0" x2="87.9" y2="166.4" stroke="#b48cff" stroke-width="2" opacity=".55"/><line x1="86.3" y1="138.0" x2="79.3" y2="134.0" stroke="#b48cff" stroke-width="2" opacity=".55"/><line x1="100.5" y1="116.7" x2="94.2" y2="111.8" stroke="#b48cff" stroke-width="2" opacity=".55"/><line x1="117.4" y1="97.4" x2="127.3" y2="107.3" stroke="#b48cff" stroke-width="2" opacity=".55"/><line x1="136.7" y1="80.5" x2="131.8" y2="74.2" stroke="#b48cff" stroke-width="2" opacity=".55"/><line x1="158.0" y1="66.3" x2="154.0" y2="59.3" stroke="#b48cff" stroke-width="2" opacity=".55"/><line x1="181.0" y1="54.9" x2="186.4" y2="67.9" stroke="#b48cff" stroke-width="2" opacity=".55"/><line x1="205.3" y1="46.7" x2="203.2" y2="39.0" stroke="#b48cff" stroke-width="2" opacity=".55"/><line x1="230.4" y1="41.7" x2="229.4" y2="33.7" stroke="#b48cff" stroke-width="2" opacity=".55"/>

<g transform="translate(256 226) scale(1.68)" filter="url(#soft)"><path class="g" d="M0,-60 C-30,-74 -64,-56 -62,-24 C-82,-10 -74,26 -50,30 C-46,56 -14,62 0,46 C14,62 46,56 50,30 C74,26 82,-10 62,-24 C64,-56 30,-74 0,-60 Z"/><path class="d" d="M0,-60 L0,46"/><path class="d" d="M-40,-36 C-24,-30 -30,-10 -14,-6"/><path class="d" d="M40,-36 C24,-30 30,-10 14,-6"/><path class="d" d="M-46,10 C-30,4 -26,24 -10,20"/><path class="d" d="M46,10 C30,4 26,24 10,20"/><g transform="translate(0,-4)"><path class="f" d="M-26,-14 L0,0 L26,-14 M-26,0 L0,14 L26,0"/></g></g>
<g>
<path d="M66,402 L446,402 L462,424 L446,446 L66,446 L50,424 Z" fill="#07080c" stroke="#b48cff" stroke-width="3"/>
<text x="256" y="435" text-anchor="middle" font-family="Bebas Neue, Oswald, Impact, 'Arial Narrow', sans-serif" font-size="31" letter-spacing="2" fill="#f1ede4" textLength="370" lengthAdjust="spacingAndGlyphs">MILITARY NEURACHEM</text>
</g>
<text x="256" y="472" text-anchor="middle" font-family="Courier New, monospace" font-size="13" letter-spacing="4" fill="#b48cff" opacity=".8">AUG-013 // BAY CITY</text>
</svg>