<svg xmlns="http://www.w3.org/2000/svg" viewBox="0 0 512 512" width="512" height="512">
<defs>
<radialGradient id="bg" cx="50%" cy="38%" r="70%"><stop offset="0" stop-color="#1a1f2b"/><stop offset=".55" stop-color="#0b0d13"/><stop offset="1" stop-color="#030305"/></radialGradient>
<linearGradient id="haze" x1="0" y1="0" x2="0" y2="1"><stop offset="0" stop-color="#ffb020" stop-opacity=".16"/><stop offset=".5" stop-color="#ffb020" stop-opacity="0"/><stop offset="1" stop-color="#ff2e4d" stop-opacity=".14"/></linearGradient>
<filter id="glow" x="-30%" y="-30%" width="160%" height="160%"><feGaussianBlur stdDeviation="5" result="b"/><feMerge><feMergeNode in="b"/><feMergeNode in="SourceGraphic"/></feMerge></filter>
<filter id="soft" x="-30%" y="-30%" width="160%" height="160%"><feGaussianBlur stdDeviation="2.2" result="b"/><feMerge><feMergeNode in="b"/><feMergeNode in="b"/><feMergeNode in="SourceGraphic"/></feMerge></filter>
<clipPath id="clip"><circle cx="256" cy="236" r="208"/></clipPath>
<style>.g{fill:#0d1018;stroke:#ff2e4d;stroke-width:4.5;stroke-linejoin:round;stroke-linecap:round}.s{fill:none;stroke:#ff2e4d;stroke-width:4.5;stroke-linejoin:round;stroke-linecap:round}.f{fill:#ff2e4d;stroke:none}.d{fill:none;stroke:#ff2e4d;stroke-width:2;opacity:.55;stroke-linecap:round}</style>
</defs>
<g clip-path="url(#clip)">
<rect width="512" height="512" fill="url(#bg)"/>
<rect width="512" height="512" fill="url(#haze)"/>
<g opacity=".5"><line x1="0" y1="6" x2="512" y2="6" stroke="#ffffff" stroke-width="1" opacity=".035"/><line x1="0" y1="12" x2="512" y2="12" stroke="#ffffff" stroke-width="1" opacity=".035"/><line x1="0" y1="18" x2="512" y2="18" stroke="#ffffff" stroke-width="1" opacity=".035"/><line x1="0" y1="24" x2="512" y2="24" stroke="#ffffff" stroke-width="1" opacity=".035"/><line x1="0" y1="30" x2="512" y2="30" stroke="#ffffff" stroke-width="1" opacity=".035"/><line x1="0" y1="36" x2="512" y2="36" stroke="#ffffff" stroke-width="1" opacity=".035"/><line x1="0" y1="42" x2="512" y2="42" stroke="#ffffff" stroke-width="1" opacity=".035"/><line x1="0" y1="48" x2="512" y2="48" stroke="#ffffff" stroke-width="1" opacity=".035"/><line x1="0" y1="54" x2="512" y2="54" stroke="#ffffff" stroke-width="1" opacity=".035"/><line x1="0" y1="60" x2="512" y2="60" stroke="#ffffff" stroke-width="1" opacity=".035"/><line x1="0" y1="66" x2="512" y2="66" stroke="#ffffff" stroke-width="1" opacity=".035"/><line x1="0" y1="72" x2="512" y2="72" stroke="#ffffff" stroke-width="1" opacity=".035"/><line x1="0" y1="78" x2="512" y2="78" stroke="#ffffff" stroke-width="1" opacity=".035"/><line x1="0" y1="84" x2="512" y2="84" stroke="#ffffff" stroke-width="1" opacity=".035"/><line x1="0" y1="90" x2="512" y2="90" stroke="#ffffff" stroke-width="1" opacity=".035"/><line x1="0" y1="96" x2="512" y2="96" stroke="#ffffff" stroke-width="1" opacity=".035"/><line x1="0" y1="102" x2="512" y2="102" stroke="#ffffff" stroke-width="1" opacity=".035"/><line x1="0" y1="108" x2="512" y2="108" stroke="#ffffff" stroke-width="1" opacity=".035"/><line x1="0" y1="114" x2="512" y2="114" stroke="#ffffff" stroke-width="1" opacity=".035"/><line x1="0" y1="120" x2="512" y2="120" stroke="#ffffff" stroke-width="1" opacity=".035"/><line x1="0" y1="126" x2="512" y2="126" stroke="#ffffff" stroke-width="1" opacity=".035"/><line x1="0" y1="132" x2="512" y2="132" stroke="#ffffff" stroke-width="1" opacity=".035"/><line x1="0" y1="138" x2="512" y2="138" stroke="#ffffff" stroke-width="1" opacity=".035"/><line x1="0" y1="144" x2="512" y2="144" stroke="#ffffff" stroke-width="1" opacity=".035"/><line x1="0" y1="150" x2="512" y2="150" stroke="#ffffff" stroke-width="1" opacity=".035"/><line x1="0" y1="156" x2="512" y2="156" stroke="#ffffff" stroke-width="1" opacity=".035"/><line x1="0" y1="162" x2="512" y2="162" stroke="#ffffff" stroke-width="1" opacity=".035"/><line x1="0" y1="168" x2="512" y2="168" stroke="#ffffff" stroke-width="1" opacity=".035"/><line x1="0" y1="174" x2="512" y2="174" stroke="#ffffff" stroke-width="1" opacity=".035"/><line x1="0" y1="180" x2="512" y2="180" stroke="#ffffff" stroke-width="1" opacity=".035"/><line x1="0" y1="186" x2="512" y2="186" stroke="#ffffff" stroke-width="1" opacity=".035"/><line x1="0" y1="192" x2="512" y2="192" stroke="#ffffff" stroke-width="1" opacity=".035"/><line x1="0" y1="198" x2="512" y2="198" stroke="#ffffff" stroke-width="1" opacity=".035"/><line x1="0" y1="204" x2="512" y2="204" stroke="#ffffff" stroke-width="1" opacity=".035"/><line x1="0" y1="210" x2="512" y2="210" stroke="#ffffff" stroke-width="1" opacity=".035"/><line x1="0" y1="216" x2="512" y2="216" stroke="#ffffff" stroke-width="1" opacity=".035"/><line x1="0" y1="222" x2="512" y2="222" stroke="#ffffff" stroke-width="1" opacity=".035"/><line x1="0" y1="228" x2="512" y2="228" stroke="#ffffff" stroke-width="1" opacity=".035"/><line x1="0" y1="234" x2="512" y2="234" stroke="#ffffff" stroke-width="1" opacity=".035"/><line x1="0" y1="240" x2="512" y2="240" stroke="#ffffff" stroke-width="1" opacity=".035"/><line x1="0" y1="246" x2="512" y2="246" stroke="#ffffff" stroke-width="1" opacity=".035"/><line x1="0" y1="252" x2="512" y2="252" stroke="#ffffff" stroke-width="1" opacity=".035"/><line x1="0" y1="258" x2="512" y2="258" stroke="#ffffff" stroke-width="1" opacity=".035"/><line x1="0" y1="264" x2="512" y2="264" stroke="#ffffff" stroke-width="1" opacity=".035"/><line x1="0" y1="270" x2="512" y2="270" stroke="#ffffff" stroke-width="1" opacity=".035"/><line x1="0" y1="276" x2="512" y2="276" stroke="#ffffff" stroke-width="1" opacity=".035"/><line x1="0" y1="282" x2="512" y2="282" stroke="#ffffff" stroke-width="1" opacity=".035"/><line x1="0" y1="288" x2="512" y2="288" stroke="#ffffff" stroke-width="1" opacity=".035"/><line x1="0" y1="294" x2="512" y2="294" stroke="#ffffff" stroke-width="1" opacity=".035"/><line x1="0" y1="300" x2="512" y2="300" stroke="#ffffff" stroke-width="1" opacity=".035"/><line x1="0" y1="306" x2="512" y2="306" stroke="#ffffff" stroke-width="1" opacity=".035"/><line x1="0" y1="312" x2="512" y2="312" stroke="#ffffff" stroke-width="1" opacity=".035"/><line x1="0" y1="318" x2="512" y2="318" stroke="#ffffff" stroke-width="1" opacity=".035"/><line x1="0" y1="324" x2="512" y2="324" stroke="#ffffff" stroke-width="1" opacity=".035"/><line x1="0" y1="330" x2="512" y2="330" stroke="#ffffff" stroke-width="1" opacity=".035"/><line x1="0" y1="336" x2="512" y2="336" stroke="#ffffff" stroke-width="1" opacity=".035"/><line x1="0" y1="342" x2="512" y2="342" stroke="#ffffff" stroke-width="1" opacity=".035"/><line x1="0" y1="348" x2="512" y2="348" stroke="#ffffff" stroke-width="1" opacity=".035"/><line x1="0" y1="354" x2="512" y2="354" stroke="#ffffff" stroke-width="1" opacity=".035"/><line x1="0" y1="360" x2="512" y2="360" stroke="#ffffff" stroke-width="1" opacity=".035"/><line x1="0" y1="366" x2="512" y2="366" stroke="#ffffff" stroke-width="1" opacity=".035"/><line x1="0" y1="372" x2="512" y2="372" stroke="#ffffff" stroke-width="1" opacity=".035"/><line x1="0" y1="378" x2="512" y2="378" stroke="#ffffff" stroke-width="1" opacity=".035"/><line x1="0" y1="384" x2="512" y2="384" stroke="#ffffff" stroke-width="1" opacity=".035"/><line x1="0" y1="390" x2="512" y2="390" stroke="#ffffff" stroke-width="1" opacity=".035"/><line x1="0" y1="396" x2="512" y2="396" stroke="#ffffff" stroke-width="1" opacity=".035"/><line x1="0" y1="402" x2="512" y2="402" stroke="#ffffff" stroke-width="1" opacity=".035"/><line x1="0" y1="408" x2="512" y2="408" stroke="#ffffff" stroke-width="1" opacity=".035"/><line x1="0" y1="414" x2="512" y2="414" stroke="#ffffff" stroke-width="1" opacity=".035"/><line x1="0" y1="420" x2="512" y2="420" stroke="#ffffff" stroke-width="1" opacity=".035"/><line x1="0" y1="426" x2="512" y2="426" stroke="#ffffff" stroke-width="1" opacity=".035"/><line x1="0" y1="432" x2="512" y2="432" stroke="#ffffff" stroke-width="1" opacity=".035"/><line x1="0" y1="438" x2="512" y2="438" stroke="#ffffff" stroke-width="1" opacity=".035"/><line x1="0" y1="444" x2="512" y2="444" stroke="#ffffff" stroke-width="1" opacity=".035"/><line x1="0" y1="450" x2="512" y2="450" stroke="#ffffff" stroke-width="1" opacity=".035"/><line x1="0" y1="456" x2="512" y2="456" stroke="#ffffff" stroke-width="1" opacity=".035"/><line x1="0" y1="462" x2="512" y2="462" stroke="#ffffff" stroke-width="1" opacity=".035"/><line x1="0" y1="468" x2="512" y2="468" stroke="#ffffff" stroke-width="1" opacity=".035"/><line x1="0" y1="474" x2="512" y2="474" stroke="#ffffff" stroke-width="1" opacity=".035"/><line x1="0" y1="480" x2="512" y2="480" stroke="#ffffff" stroke-width="1" opacity=".035"/><line x1="0" y1="486" x2="512" y2="486" stroke="#ffffff" stroke-width="1" opacity=".035"/><line x1="0" y1="492" x2="512" y2="492" stroke="#ffffff" stroke-width="1" opacity=".035"/><line x1="0" y1="498" x2="512" y2="498" stroke="#ffffff" stroke-width="1" opacity=".035"/><line x1="0" y1="504" x2="512" y2="504" stroke="#ffffff" stroke-width="1" opacity=".035"/><line x1="0" y1="510" x2="512" y2="510" stroke="#ffffff" stroke-width="1" opacity=".035"/></g>
<line x1="103.1" y1="49.7" x2="90.3" y2="95.6" stroke="#9fb6c8" stroke-width="1.4" opacity="0.07"/><line x1="-25.9" y1="401.9" x2="-35.7" y2="436.9" stroke="#9fb6c8" stroke-width="1.4" opacity="0.09"/><line x1="54.4" y1="247.0" x2="39.7" y2="299.6" stroke="#9fb6c8" stroke-width="1.4" opacity="0.11"/><line x1="443.3" y1="-23.6" x2="431.6" y2="18.3" stroke="#9fb6c8" stroke-width="1.4" opacity="0.13"/><line x1="268.0" y1="128.5" x2="253.5" y2="180.3" stroke="#9fb6c8" stroke-width="1.4" opacity="0.13"/><line x1="124.3" y1="419.4" x2="111.9" y2="463.6" stroke="#9fb6c8" stroke-width="1.4" opacity="0.18"/><line x1="58.0" y1="398.4" x2="47.7" y2="435.1" stroke="#9fb6c8" stroke-width="1.4" opacity="0.10"/><line x1="312.4" y1="386.8" x2="296.8" y2="442.4" stroke="#9fb6c8" stroke-width="1.4" opacity="0.16"/><line x1="143.7" y1="122.0" x2="137.5" y2="144.2" stroke="#9fb6c8" stroke-width="1.4" opacity="0.16"/><line x1="297.6" y1="223.0" x2="283.3" y2="274.3" stroke="#9fb6c8" stroke-width="1.4" opacity="0.19"/><line x1="-21.1" y1="220.2" x2="-30.4" y2="253.7" stroke="#9fb6c8" stroke-width="1.4" opacity="0.13"/><line x1="220.4" y1="473.7" x2="213.4" y2="498.7" stroke="#9fb6c8" stroke-width="1.4" opacity="0.11"/><line x1="368.3" y1="114.9" x2="353.3" y2="168.6" stroke="#9fb6c8" stroke-width="1.4" opacity="0.12"/><line x1="442.7" y1="397.8" x2="435.9" y2="422.0" stroke="#9fb6c8" stroke-width="1.4" opacity="0.18"/><line x1="352.9" y1="466.1" x2="347.4" y2="485.5" stroke="#9fb6c8" stroke-width="1.4" opacity="0.08"/><line x1="390.1" y1="229.9" x2="381.8" y2="259.6" stroke="#9fb6c8" stroke-width="1.4" opacity="0.10"/><line x1="496.9" y1="110.6" x2="484.6" y2="154.6" stroke="#9fb6c8" stroke-width="1.4" opacity="0.18"/><line x1="123.7" y1="17.5" x2="114.6" y2="50.1" stroke="#9fb6c8" stroke-width="1.4" opacity="0.15"/><line x1="93.1" y1="339.3" x2="80.1" y2="385.5" stroke="#9fb6c8" stroke-width="1.4" opacity="0.17"/><line x1="227.0" y1="106.4" x2="214.8" y2="150.1" stroke="#9fb6c8" stroke-width="1.4" opacity="0.14"/><line x1="114.1" y1="156.6" x2="102.0" y2="199.8" stroke="#9fb6c8" stroke-width="1.4" opacity="0.12"/><line x1="347.3" y1="306.2" x2="335.4" y2="348.6" stroke="#9fb6c8" stroke-width="1.4" opacity="0.13"/><line x1="117.5" y1="7.8" x2="102.3" y2="62.1" stroke="#9fb6c8" stroke-width="1.4" opacity="0.17"/><line x1="5.0" y1="390.2" x2="-7.2" y2="433.7" stroke="#9fb6c8" stroke-width="1.4" opacity="0.18"/><line x1="509.9" y1="12.1" x2="493.6" y2="70.5" stroke="#9fb6c8" stroke-width="1.4" opacity="0.07"/><line x1="86.4" y1="201.4" x2="70.2" y2="259.2" stroke="#9fb6c8" stroke-width="1.4" opacity="0.07"/><line x1="382.6" y1="452.8" x2="376.3" y2="475.2" stroke="#9fb6c8" stroke-width="1.4" opacity="0.14"/><line x1="250.2" y1="-15.6" x2="237.3" y2="30.6" stroke="#9fb6c8" stroke-width="1.4" opacity="0.10"/><line x1="251.5" y1="191.0" x2="239.1" y2="235.2" stroke="#9fb6c8" stroke-width="1.4" opacity="0.09"/><line x1="85.5" y1="205.8" x2="79.0" y2="229.2" stroke="#9fb6c8" stroke-width="1.4" opacity="0.21"/><line x1="46.4" y1="334.3" x2="35.1" y2="374.6" stroke="#9fb6c8" stroke-width="1.4" opacity="0.12"/><line x1="531.8" y1="301.4" x2="518.6" y2="348.6" stroke="#9fb6c8" stroke-width="1.4" opacity="0.07"/><line x1="410.2" y1="510.9" x2="394.0" y2="568.7" stroke="#9fb6c8" stroke-width="1.4" opacity="0.16"/><line x1="134.8" y1="496.4" x2="123.0" y2="538.6" stroke="#9fb6c8" stroke-width="1.4" opacity="0.18"/>
<ellipse cx="256" cy="330" rx="150" ry="22" fill="#ff2e4d" opacity=".08"/>
</g>
<circle cx="256" cy="236" r="208" fill="none" stroke="#ff2e4d" stroke-width="6" filter="url(#glow)"/><circle cx="256" cy="236" r="190" fill="none" stroke="#ff2e4d" stroke-width="1.5" opacity=".5"/><line x1="256.0" y1="40.0" x2="256.0" y2="54.0" stroke="#ff2e4d" stroke-width="2" opacity=".55"/><line x1="290.0" y1="43.0" x2="291.4" y2="35.1" stroke="#ff2e4d" stroke-width="2" opacity=".55"/><line x1="323.0" y1="51.8" x2="325.8" y2="44.3" stroke="#ff2e4d" stroke-width="2" opacity=".55"/><line x1="354.0" y1="66.3" x2="347.0" y2="78.4" stroke="#ff2e4d" stroke-width="2" opacity=".55"/><line x1="382.0" y1="85.9" x2="387.1" y2="79.7" stroke="#ff2e4d" stroke-width="2" opacity=".55"/><line x1="406.1" y1="110.0" x2="412.3" y2="104.9" stroke="#ff2e4d" stroke-width="2" opacity=".55"/><line x1="425.7" y1="138.0" x2="413.6" y2="145.0" stroke="#ff2e4d" stroke-width="2" opacity=".55"/><line x1="440.2" y1="169.0" x2="447.7" y2="166.2" stroke="#ff2e4d" stroke-width="2" opacity=".55"/><line x1="449.0" y1="202.0" x2="456.9" y2="200.6" stroke="#ff2e4d" stroke-width="2" opacity=".55"/><line x1="452.0" y1="236.0" x2="438.0" y2="236.0" stroke="#ff2e4d" stroke-width="2" opacity=".55"/><line x1="449.0" y1="270.0" x2="456.9" y2="271.4" stroke="#ff2e4d" stroke-width="2" opacity=".55"/><line x1="440.2" y1="303.0" x2="447.7" y2="305.8" stroke="#ff2e4d" stroke-width="2" opacity=".55"/><line x1="425.7" y1="334.0" x2="413.6" y2="327.0" stroke="#ff2e4d" stroke-width="2" opacity=".55"/><line x1="406.1" y1="362.0" x2="412.3" y2="367.1" stroke="#ff2e4d" stroke-width="2" opacity=".55"/><line x1="382.0" y1="386.1" x2="387.1" y2="392.3" stroke="#ff2e4d" stroke-width="2" opacity=".55"/><line x1="354.0" y1="405.7" x2="347.0" y2="393.6" stroke="#ff2e4d" stroke-width="2" opacity=".55"/><line x1="323.0" y1="420.2" x2="325.8" y2="427.7" stroke="#ff2e4d" stroke-width="2" opacity=".55"/><line x1="290.0" y1="429.0" x2="291.4" y2="436.9" stroke="#ff2e4d" stroke-width="2" opacity=".55"/><line x1="256.0" y1="432.0" x2="256.0" y2="418.0" stroke="#ff2e4d" stroke-width="2" opacity=".55"/><line x1="222.0" y1="429.0" x2="220.6" y2="436.9" stroke="#ff2e4d" stroke-width="2" opacity=".55"/><line x1="189.0" y1="420.2" x2="186.2" y2="427.7" stroke="#ff2e4d" stroke-width="2" opacity=".55"/><line x1="158.0" y1="405.7" x2="165.0" y2="393.6" stroke="#ff2e4d" stroke-width="2" opacity=".55"/><line x1="130.0" y1="386.1" x2="124.9" y2="392.3" stroke="#ff2e4d" stroke-width="2" opacity=".55"/><line x1="105.9" y1="362.0" x2="99.7" y2="367.1" stroke="#ff2e4d" stroke-width="2" opacity=".55"/><line x1="86.3" y1="334.0" x2="98.4" y2="327.0" stroke="#ff2e4d" stroke-width="2" opacity=".55"/><line x1="71.8" y1="303.0" x2="64.3" y2="305.8" stroke="#ff2e4d" stroke-width="2" opacity=".55"/><line x1="63.0" y1="270.0" x2="55.1" y2="271.4" stroke="#ff2e4d" stroke-width="2" opacity=".55"/><line x1="60.0" y1="236.0" x2="74.0" y2="236.0" stroke="#ff2e4d" stroke-width="2" opacity=".55"/><line x1="63.0" y1="202.0" x2="55.1" y2="200.6" stroke="#ff2e4d" stroke-width="2" opacity=".55"/><line x1="71.8" y1="169.0" x2="64.3" y2="166.2" stroke="#ff2e4d" stroke-width="2" opacity=".55"/><line x1="86.3" y1="138.0" x2="98.4" y2="145.0" stroke="#ff2e4d" stroke-width="2" opacity=".55"/><line x1="222.0" y1="43.0" x2="220.6" y2="35.1" stroke="#ff2e4d" stroke-width="2" opacity=".55"/>

<g transform="translate(256 226) scale(1.85)" filter="url(#soft)"><circle class="g" cx="-45" cy="-10" r="15"/><circle class="g" cx="-15" cy="-10" r="15"/><circle class="g" cx="15" cy="-10" r="15"/><circle class="g" cx="45" cy="-10" r="15"/><path class="g" d="M-62,8 Q0,46 62,8 L62,20 Q0,62 -62,20 Z"/><g transform="translate(0,-54) scale(0.5)"><path class="f" d="M6,-40 L-16,4 L-2,4 L-10,40 L16,-6 L2,-6 Z"/></g></g>
<g>
<path d="M66,402 L446,402 L462,424 L446,446 L66,446 L50,424 Z" fill="#07080c" stroke="#ff2e4d" stroke-width="3"/>
<text x="256" y="437" text-anchor="middle" font-family="Bebas Neue, Oswald, Impact, 'Arial Narrow', sans-serif" font-size="36" letter-spacing="2" fill="#f1ede4">POWER KNUCKLES</text>
</g>
<text x="256" y="472" text-anchor="middle" font-family="Courier New, monospace" font-size="13" letter-spacing="4" fill="#ff2e4d" opacity=".8">WPN-019 // BAY CITY</text>
</svg>