<svg xmlns="http://www.w3.org/2000/svg" viewBox="0 0 512 512" width="512" height="512">
<defs>
<radialGradient id="bg" cx="50%" cy="38%" r="70%"><stop offset="0" stop-color="#1a1f2b"/><stop offset=".55" stop-color="#0b0d13"/><stop offset="1" stop-color="#030305"/></radialGradient>
<linearGradient id="haze" x1="0" y1="0" x2="0" y2="1"><stop offset="0" stop-color="#7fb2ff" stop-opacity=".16"/><stop offset=".5" stop-color="#7fb2ff" stop-opacity="0"/><stop offset="1" stop-color="#32c7d6" stop-opacity=".14"/></linearGradient>
<filter id="glow" x="-30%" y="-30%" width="160%" height="160%"><feGaussianBlur stdDeviation="5" result="b"/><feMerge><feMergeNode in="b"/><feMergeNode in="SourceGraphic"/></feMerge></filter>
<filter id="soft" x="-30%" y="-30%" width="160%" height="160%"><feGaussianBlur stdDeviation="2.2" result="b"/><feMerge><feMergeNode in="b"/><feMergeNode in="b"/><feMergeNode in="SourceGraphic"/></feMerge></filter>
<clipPath id="clip"><circle cx="256" cy="236" r="208"/></clipPath>
<style>.g{fill:#0d1018;stroke:#32c7d6;stroke-width:4.5;stroke-linejoin:round;stroke-linecap:round}.s{fill:none;stroke:#32c7d6;stroke-width:4.5;stroke-linejoin:round;stroke-linecap:round}.f{fill:#32c7d6;stroke:none}.d{fill:none;stroke:#32c7d6;stroke-width:2;opacity:.55;stroke-linecap:round}</style>
</defs>
<g clip-path="url(#clip)">
<rect width="512" height="512" fill="url(#bg)"/>
<rect width="512" height="512" fill="url(#haze)"/>
<g opacity=".5"><line x1="0" y1="6" x2="512" y2="6" stroke="#ffffff" stroke-width="1" opacity=".035"/><line x1="0" y1="12" x2="512" y2="12" stroke="#ffffff" stroke-width="1" opacity=".035"/><line x1="0" y1="18" x2="512" y2="18" stroke="#ffffff" stroke-width="1" opacity=".035"/><line x1="0" y1="24" x2="512" y2="24" stroke="#ffffff" stroke-width="1" opacity=".035"/><line x1="0" y1="30" x2="512" y2="30" stroke="#ffffff" stroke-width="1" opacity=".035"/><line x1="0" y1="36" x2="512" y2="36" stroke="#ffffff" stroke-width="1" opacity=".035"/><line x1="0" y1="42" x2="512" y2="42" stroke="#ffffff" stroke-width="1" opacity=".035"/><line x1="0" y1="48" x2="512" y2="48" stroke="#ffffff" stroke-width="1" opacity=".035"/><line x1="0" y1="54" x2="512" y2="54" stroke="#ffffff" stroke-width="1" opacity=".035"/><line x1="0" y1="60" x2="512" y2="60" stroke="#ffffff" stroke-width="1" opacity=".035"/><line x1="0" y1="66" x2="512" y2="66" stroke="#ffffff" stroke-width="1" opacity=".035"/><line x1="0" y1="72" x2="512" y2="72" stroke="#ffffff" stroke-width="1" opacity=".035"/><line x1="0" y1="78" x2="512" y2="78" stroke="#ffffff" stroke-width="1" opacity=".035"/><line x1="0" y1="84" x2="512" y2="84" stroke="#ffffff" stroke-width="1" opacity=".035"/><line x1="0" y1="90" x2="512" y2="90" stroke="#ffffff" stroke-width="1" opacity=".035"/><line x1="0" y1="96" x2="512" y2="96" stroke="#ffffff" stroke-width="1" opacity=".035"/><line x1="0" y1="102" x2="512" y2="102" stroke="#ffffff" stroke-width="1" opacity=".035"/><line x1="0" y1="108" x2="512" y2="108" stroke="#ffffff" stroke-width="1" opacity=".035"/><line x1="0" y1="114" x2="512" y2="114" stroke="#ffffff" stroke-width="1" opacity=".035"/><line x1="0" y1="120" x2="512" y2="120" stroke="#ffffff" stroke-width="1" opacity=".035"/><line x1="0" y1="126" x2="512" y2="126" stroke="#ffffff" stroke-width="1" opacity=".035"/><line x1="0" y1="132" x2="512" y2="132" stroke="#ffffff" stroke-width="1" opacity=".035"/><line x1="0" y1="138" x2="512" y2="138" stroke="#ffffff" stroke-width="1" opacity=".035"/><line x1="0" y1="144" x2="512" y2="144" stroke="#ffffff" stroke-width="1" opacity=".035"/><line x1="0" y1="150" x2="512" y2="150" stroke="#ffffff" stroke-width="1" opacity=".035"/><line x1="0" y1="156" x2="512" y2="156" stroke="#ffffff" stroke-width="1" opacity=".035"/><line x1="0" y1="162" x2="512" y2="162" stroke="#ffffff" stroke-width="1" opacity=".035"/><line x1="0" y1="168" x2="512" y2="168" stroke="#ffffff" stroke-width="1" opacity=".035"/><line x1="0" y1="174" x2="512" y2="174" stroke="#ffffff" stroke-width="1" opacity=".035"/><line x1="0" y1="180" x2="512" y2="180" stroke="#ffffff" stroke-width="1" opacity=".035"/><line x1="0" y1="186" x2="512" y2="186" stroke="#ffffff" stroke-width="1" opacity=".035"/><line x1="0" y1="192" x2="512" y2="192" stroke="#ffffff" stroke-width="1" opacity=".035"/><line x1="0" y1="198" x2="512" y2="198" stroke="#ffffff" stroke-width="1" opacity=".035"/><line x1="0" y1="204" x2="512" y2="204" stroke="#ffffff" stroke-width="1" opacity=".035"/><line x1="0" y1="210" x2="512" y2="210" stroke="#ffffff" stroke-width="1" opacity=".035"/><line x1="0" y1="216" x2="512" y2="216" stroke="#ffffff" stroke-width="1" opacity=".035"/><line x1="0" y1="222" x2="512" y2="222" stroke="#ffffff" stroke-width="1" opacity=".035"/><line x1="0" y1="228" x2="512" y2="228" stroke="#ffffff" stroke-width="1" opacity=".035"/><line x1="0" y1="234" x2="512" y2="234" stroke="#ffffff" stroke-width="1" opacity=".035"/><line x1="0" y1="240" x2="512" y2="240" stroke="#ffffff" stroke-width="1" opacity=".035"/><line x1="0" y1="246" x2="512" y2="246" stroke="#ffffff" stroke-width="1" opacity=".035"/><line x1="0" y1="252" x2="512" y2="252" stroke="#ffffff" stroke-width="1" opacity=".035"/><line x1="0" y1="258" x2="512" y2="258" stroke="#ffffff" stroke-width="1" opacity=".035"/><line x1="0" y1="264" x2="512" y2="264" stroke="#ffffff" stroke-width="1" opacity=".035"/><line x1="0" y1="270" x2="512" y2="270" stroke="#ffffff" stroke-width="1" opacity=".035"/><line x1="0" y1="276" x2="512" y2="276" stroke="#ffffff" stroke-width="1" opacity=".035"/><line x1="0" y1="282" x2="512" y2="282" stroke="#ffffff" stroke-width="1" opacity=".035"/><line x1="0" y1="288" x2="512" y2="288" stroke="#ffffff" stroke-width="1" opacity=".035"/><line x1="0" y1="294" x2="512" y2="294" stroke="#ffffff" stroke-width="1" opacity=".035"/><line x1="0" y1="300" x2="512" y2="300" stroke="#ffffff" stroke-width="1" opacity=".035"/><line x1="0" y1="306" x2="512" y2="306" stroke="#ffffff" stroke-width="1" opacity=".035"/><line x1="0" y1="312" x2="512" y2="312" stroke="#ffffff" stroke-width="1" opacity=".035"/><line x1="0" y1="318" x2="512" y2="318" stroke="#ffffff" stroke-width="1" opacity=".035"/><line x1="0" y1="324" x2="512" y2="324" stroke="#ffffff" stroke-width="1" opacity=".035"/><line x1="0" y1="330" x2="512" y2="330" stroke="#ffffff" stroke-width="1" opacity=".035"/><line x1="0" y1="336" x2="512" y2="336" stroke="#ffffff" stroke-width="1" opacity=".035"/><line x1="0" y1="342" x2="512" y2="342" stroke="#ffffff" stroke-width="1" opacity=".035"/><line x1="0" y1="348" x2="512" y2="348" stroke="#ffffff" stroke-width="1" opacity=".035"/><line x1="0" y1="354" x2="512" y2="354" stroke="#ffffff" stroke-width="1" opacity=".035"/><line x1="0" y1="360" x2="512" y2="360" stroke="#ffffff" stroke-width="1" opacity=".035"/><line x1="0" y1="366" x2="512" y2="366" stroke="#ffffff" stroke-width="1" opacity=".035"/><line x1="0" y1="372" x2="512" y2="372" stroke="#ffffff" stroke-width="1" opacity=".035"/><line x1="0" y1="378" x2="512" y2="378" stroke="#ffffff" stroke-width="1" opacity=".035"/><line x1="0" y1="384" x2="512" y2="384" stroke="#ffffff" stroke-width="1" opacity=".035"/><line x1="0" y1="390" x2="512" y2="390" stroke="#ffffff" stroke-width="1" opacity=".035"/><line x1="0" y1="396" x2="512" y2="396" stroke="#ffffff" stroke-width="1" opacity=".035"/><line x1="0" y1="402" x2="512" y2="402" stroke="#ffffff" stroke-width="1" opacity=".035"/><line x1="0" y1="408" x2="512" y2="408" stroke="#ffffff" stroke-width="1" opacity=".035"/><line x1="0" y1="414" x2="512" y2="414" stroke="#ffffff" stroke-width="1" opacity=".035"/><line x1="0" y1="420" x2="512" y2="420" stroke="#ffffff" stroke-width="1" opacity=".035"/><line x1="0" y1="426" x2="512" y2="426" stroke="#ffffff" stroke-width="1" opacity=".035"/><line x1="0" y1="432" x2="512" y2="432" stroke="#ffffff" stroke-width="1" opacity=".035"/><line x1="0" y1="438" x2="512" y2="438" stroke="#ffffff" stroke-width="1" opacity=".035"/><line x1="0" y1="444" x2="512" y2="444" stroke="#ffffff" stroke-width="1" opacity=".035"/><line x1="0" y1="450" x2="512" y2="450" stroke="#ffffff" stroke-width="1" opacity=".035"/><line x1="0" y1="456" x2="512" y2="456" stroke="#ffffff" stroke-width="1" opacity=".035"/><line x1="0" y1="462" x2="512" y2="462" stroke="#ffffff" stroke-width="1" opacity=".035"/><line x1="0" y1="468" x2="512" y2="468" stroke="#ffffff" stroke-width="1" opacity=".035"/><line x1="0" y1="474" x2="512" y2="474" stroke="#ffffff" stroke-width="1" opacity=".035"/><line x1="0" y1="480" x2="512" y2="480" stroke="#ffffff" stroke-width="1" opacity=".035"/><line x1="0" y1="486" x2="512" y2="486" stroke="#ffffff" stroke-width="1" opacity=".035"/><line x1="0" y1="492" x2="512" y2="492" stroke="#ffffff" stroke-width="1" opacity=".035"/><line x1="0" y1="498" x2="512" y2="498" stroke="#ffffff" stroke-width="1" opacity=".035"/><line x1="0" y1="504" x2="512" y2="504" stroke="#ffffff" stroke-width="1" opacity=".035"/><line x1="0" y1="510" x2="512" y2="510" stroke="#ffffff" stroke-width="1" opacity=".035"/></g>
<line x1="462.0" y1="-29.8" x2="445.6" y2="28.8" stroke="#9fb6c8" stroke-width="1.4" opacity="0.08"/><line x1="197.8" y1="483.3" x2="185.4" y2="527.6" stroke="#9fb6c8" stroke-width="1.4" opacity="0.10"/><line x1="98.4" y1="199.9" x2="90.6" y2="227.6" stroke="#9fb6c8" stroke-width="1.4" opacity="0.06"/><line x1="271.3" y1="409.1" x2="263.6" y2="436.4" stroke="#9fb6c8" stroke-width="1.4" opacity="0.17"/><line x1="-8.1" y1="50.3" x2="-14.8" y2="74.2" stroke="#9fb6c8" stroke-width="1.4" opacity="0.20"/><line x1="303.7" y1="305.1" x2="290.9" y2="350.7" stroke="#9fb6c8" stroke-width="1.4" opacity="0.22"/><line x1="310.7" y1="381.6" x2="301.6" y2="413.8" stroke="#9fb6c8" stroke-width="1.4" opacity="0.21"/><line x1="321.2" y1="194.0" x2="310.2" y2="233.5" stroke="#9fb6c8" stroke-width="1.4" opacity="0.11"/><line x1="448.0" y1="-23.3" x2="433.5" y2="28.3" stroke="#9fb6c8" stroke-width="1.4" opacity="0.16"/><line x1="84.1" y1="276.8" x2="70.3" y2="325.9" stroke="#9fb6c8" stroke-width="1.4" opacity="0.07"/><line x1="81.5" y1="223.2" x2="75.4" y2="244.8" stroke="#9fb6c8" stroke-width="1.4" opacity="0.10"/><line x1="337.9" y1="58.7" x2="331.6" y2="81.5" stroke="#9fb6c8" stroke-width="1.4" opacity="0.18"/><line x1="71.5" y1="144.3" x2="66.4" y2="162.6" stroke="#9fb6c8" stroke-width="1.4" opacity="0.17"/><line x1="128.4" y1="-39.8" x2="114.4" y2="10.2" stroke="#9fb6c8" stroke-width="1.4" opacity="0.12"/><line x1="2.8" y1="131.3" x2="-4.6" y2="157.9" stroke="#9fb6c8" stroke-width="1.4" opacity="0.20"/><line x1="177.3" y1="228.6" x2="165.5" y2="270.8" stroke="#9fb6c8" stroke-width="1.4" opacity="0.15"/><line x1="-25.6" y1="243.8" x2="-38.8" y2="291.1" stroke="#9fb6c8" stroke-width="1.4" opacity="0.22"/><line x1="292.5" y1="353.8" x2="281.8" y2="392.1" stroke="#9fb6c8" stroke-width="1.4" opacity="0.07"/><line x1="399.7" y1="398.7" x2="388.2" y2="439.8" stroke="#9fb6c8" stroke-width="1.4" opacity="0.17"/><line x1="18.7" y1="477.1" x2="10.7" y2="505.7" stroke="#9fb6c8" stroke-width="1.4" opacity="0.19"/><line x1="146.5" y1="52.1" x2="137.5" y2="84.4" stroke="#9fb6c8" stroke-width="1.4" opacity="0.11"/><line x1="486.5" y1="493.6" x2="480.4" y2="515.2" stroke="#9fb6c8" stroke-width="1.4" opacity="0.17"/><line x1="172.0" y1="110.1" x2="158.8" y2="157.2" stroke="#9fb6c8" stroke-width="1.4" opacity="0.18"/><line x1="504.8" y1="8.8" x2="499.1" y2="29.4" stroke="#9fb6c8" stroke-width="1.4" opacity="0.15"/><line x1="122.2" y1="383.7" x2="107.8" y2="435.1" stroke="#9fb6c8" stroke-width="1.4" opacity="0.16"/><line x1="504.3" y1="289.0" x2="497.4" y2="313.6" stroke="#9fb6c8" stroke-width="1.4" opacity="0.16"/><line x1="176.0" y1="109.7" x2="165.8" y2="145.9" stroke="#9fb6c8" stroke-width="1.4" opacity="0.15"/><line x1="403.1" y1="172.0" x2="393.7" y2="205.4" stroke="#9fb6c8" stroke-width="1.4" opacity="0.14"/><line x1="114.3" y1="343.4" x2="101.0" y2="391.1" stroke="#9fb6c8" stroke-width="1.4" opacity="0.05"/><line x1="341.9" y1="247.7" x2="326.5" y2="302.8" stroke="#9fb6c8" stroke-width="1.4" opacity="0.10"/><line x1="92.1" y1="242.3" x2="76.3" y2="298.7" stroke="#9fb6c8" stroke-width="1.4" opacity="0.15"/><line x1="199.5" y1="153.5" x2="185.4" y2="203.8" stroke="#9fb6c8" stroke-width="1.4" opacity="0.14"/><line x1="72.8" y1="149.0" x2="61.1" y2="190.8" stroke="#9fb6c8" stroke-width="1.4" opacity="0.09"/><line x1="-10.0" y1="260.7" x2="-18.9" y2="292.6" stroke="#9fb6c8" stroke-width="1.4" opacity="0.09"/>
<ellipse cx="256" cy="330" rx="150" ry="22" fill="#32c7d6" opacity=".08"/>
</g>
<circle cx="256" cy="236" r="208" fill="none" stroke="#32c7d6" stroke-width="6" filter="url(#glow)"/><circle cx="256" cy="236" r="190" fill="none" stroke="#32c7d6" stroke-width="1.5" opacity=".5"/><line x1="256.0" y1="40.0" x2="256.0" y2="54.0" stroke="#32c7d6" stroke-width="2" opacity=".55"/><line x1="290.0" y1="43.0" x2="291.4" y2="35.1" stroke="#32c7d6" stroke-width="2" opacity=".55"/><line x1="323.0" y1="51.8" x2="325.8" y2="44.3" stroke="#32c7d6" stroke-width="2" opacity=".55"/><line x1="440.2" y1="169.0" x2="447.7" y2="166.2" stroke="#32c7d6" stroke-width="2" opacity=".55"/><line x1="449.0" y1="202.0" x2="456.9" y2="200.6" stroke="#32c7d6" stroke-width="2" opacity=".55"/><line x1="452.0" y1="236.0" x2="438.0" y2="236.0" stroke="#32c7d6" stroke-width="2" opacity=".55"/><line x1="449.0" y1="270.0" x2="456.9" y2="271.4" stroke="#32c7d6" stroke-width="2" opacity=".55"/><line x1="440.2" y1="303.0" x2="447.7" y2="305.8" stroke="#32c7d6" stroke-width="2" opacity=".55"/><line x1="425.7" y1="334.0" x2="413.6" y2="327.0" stroke="#32c7d6" stroke-width="2" opacity=".55"/><line x1="406.1" y1="362.0" x2="412.3" y2="367.1" stroke="#32c7d6" stroke-width="2" opacity=".55"/><line x1="382.0" y1="386.1" x2="387.1" y2="392.3" stroke="#32c7d6" stroke-width="2" opacity=".55"/><line x1="354.0" y1="405.7" x2="347.0" y2="393.6" stroke="#32c7d6" stroke-width="2" opacity=".55"/><line x1="323.0" y1="420.2" x2="325.8" y2="427.7" stroke="#32c7d6" stroke-width="2" opacity=".55"/><line x1="290.0" y1="429.0" x2="291.4" y2="436.9" stroke="#32c7d6" stroke-width="2" opacity=".55"/><line x1="256.0" y1="432.0" x2="256.0" y2="418.0" stroke="#32c7d6" stroke-width="2" opacity=".55"/><line x1="222.0" y1="429.0" x2="220.6" y2="436.9" stroke="#32c7d6" stroke-width="2" opacity=".55"/><line x1="189.0" y1="420.2" x2="186.2" y2="427.7" stroke="#32c7d6" stroke-width="2" opacity=".55"/><line x1="158.0" y1="405.7" x2="165.0" y2="393.6" stroke="#32c7d6" stroke-width="2" opacity=".55"/><line x1="130.0" y1="386.1" x2="124.9" y2="392.3" stroke="#32c7d6" stroke-width="2" opacity=".55"/><line x1="105.9" y1="362.0" x2="99.7" y2="367.1" stroke="#32c7d6" stroke-width="2" opacity=".55"/><line x1="86.3" y1="334.0" x2="98.4" y2="327.0" stroke="#32c7d6" stroke-width="2" opacity=".55"/><line x1="71.8" y1="303.0" x2="64.3" y2="305.8" stroke="#32c7d6" stroke-width="2" opacity=".55"/><line x1="63.0" y1="270.0" x2="55.1" y2="271.4" stroke="#32c7d6" stroke-width="2" opacity=".55"/><line x1="60.0" y1="236.0" x2="74.0" y2="236.0" stroke="#32c7d6" stroke-width="2" opacity=".55"/><line x1="63.0" y1="202.0" x2="55.1" y2="200.6" stroke="#32c7d6" stroke-width="2" opacity=".55"/><line x1="71.8" y1="169.0" x2="64.3" y2="166.2" stroke="#32c7d6" stroke-width="2" opacity=".55"/><line x1="86.3" y1="138.0" x2="98.4" y2="145.0" stroke="#32c7d6" stroke-width="2" opacity=".55"/><line x1="105.9" y1="110.0" x2="99.7" y2="104.9" stroke="#32c7d6" stroke-width="2" opacity=".55"/><line x1="130.0" y1="85.9" x2="124.9" y2="79.7" stroke="#32c7d6" stroke-width="2" opacity=".55"/><line x1="158.0" y1="66.3" x2="165.0" y2="78.4" stroke="#32c7d6" stroke-width="2" opacity=".55"/><line x1="189.0" y1="51.8" x2="186.2" y2="44.3" stroke="#32c7d6" stroke-width="2" opacity=".55"/><line x1="222.0" y1="43.0" x2="220.6" y2="35.1" stroke="#32c7d6" stroke-width="2" opacity=".55"/>

<g transform="translate(256 226) scale(1.68)" filter="url(#soft)"><path class="g" d="M-24,-50.0 L24,-50.0 L34,50.0 L-14,50.0 Z"/><line class="d" x1="-16" y1="-32.0" x2="22" y2="-32.0"/><line class="d" x1="-16" y1="-14.0" x2="22" y2="-14.0"/><line class="d" x1="-16" y1="4.0" x2="22" y2="4.0"/><line class="d" x1="-16" y1="22.0" x2="22" y2="22.0"/><g transform="translate(0,-68.0) scale(0.55)"><path class="g" d="M-10,-20 C-10,-44 10,-44 10,-20 L10,40 L-10,40 Z"/><line class="d" x1="-10" y1="-20" x2="10" y2="-20"/><rect class="g" x="-12" y="30" width="24" height="10" rx="2"/></g></g>
<g>
<path d="M66,402 L446,402 L462,424 L446,446 L66,446 L50,424 Z" fill="#07080c" stroke="#32c7d6" stroke-width="3"/>
<text x="256" y="437" text-anchor="middle" font-family="Bebas Neue, Oswald, Impact, 'Arial Narrow', sans-serif" font-size="36" letter-spacing="2" fill="#f1ede4">MAGAZINE</text>
</g>
<text x="256" y="472" text-anchor="middle" font-family="Courier New, monospace" font-size="13" letter-spacing="4" fill="#32c7d6" opacity=".8">MOD-007 // BAY CITY</text>
</svg>