<svg xmlns="http://www.w3.org/2000/svg" viewBox="0 0 512 512" width="512" height="512">
<defs>
<radialGradient id="bg" cx="50%" cy="38%" r="70%"><stop offset="0" stop-color="#1a1f2b"/><stop offset=".55" stop-color="#0b0d13"/><stop offset="1" stop-color="#030305"/></radialGradient>
<linearGradient id="haze" x1="0" y1="0" x2="0" y2="1"><stop offset="0" stop-color="#ff4fd8" stop-opacity=".16"/><stop offset=".5" stop-color="#ff4fd8" stop-opacity="0"/><stop offset="1" stop-color="#32c7d6" stop-opacity=".14"/></linearGradient>
<filter id="glow" x="-30%" y="-30%" width="160%" height="160%"><feGaussianBlur stdDeviation="5" result="b"/><feMerge><feMergeNode in="b"/><feMergeNode in="SourceGraphic"/></feMerge></filter>
<filter id="soft" x="-30%" y="-30%" width="160%" height="160%"><feGaussianBlur stdDeviation="2.2" result="b"/><feMerge><feMergeNode in="b"/><feMergeNode in="b"/><feMergeNode in="SourceGraphic"/></feMerge></filter>
<clipPath id="clip"><circle cx="256" cy="236" r="208"/></clipPath>
<style>.g{fill:#0d1018;stroke:#32c7d6;stroke-width:4.5;stroke-linejoin:round;stroke-linecap:round}.s{fill:none;stroke:#32c7d6;stroke-width:4.5;stroke-linejoin:round;stroke-linecap:round}.f{fill:#32c7d6;stroke:none}.d{fill:none;stroke:#32c7d6;stroke-width:2;opacity:.55;stroke-linecap:round}</style>
</defs>
<g clip-path="url(#clip)">
<rect width="512" height="512" fill="url(#bg)"/>
<rect width="512" height="512" fill="url(#haze)"/>
<g opacity=".5"><line x1="0" y1="6" x2="512" y2="6" stroke="#ffffff" stroke-width="1" opacity=".035"/><line x1="0" y1="12" x2="512" y2="12" stroke="#ffffff" stroke-width="1" opacity=".035"/><line x1="0" y1="18" x2="512" y2="18" stroke="#ffffff" stroke-width="1" opacity=".035"/><line x1="0" y1="24" x2="512" y2="24" stroke="#ffffff" stroke-width="1" opacity=".035"/><line x1="0" y1="30" x2="512" y2="30" stroke="#ffffff" stroke-width="1" opacity=".035"/><line x1="0" y1="36" x2="512" y2="36" stroke="#ffffff" stroke-width="1" opacity=".035"/><line x1="0" y1="42" x2="512" y2="42" stroke="#ffffff" stroke-width="1" opacity=".035"/><line x1="0" y1="48" x2="512" y2="48" stroke="#ffffff" stroke-width="1" opacity=".035"/><line x1="0" y1="54" x2="512" y2="54" stroke="#ffffff" stroke-width="1" opacity=".035"/><line x1="0" y1="60" x2="512" y2="60" stroke="#ffffff" stroke-width="1" opacity=".035"/><line x1="0" y1="66" x2="512" y2="66" stroke="#ffffff" stroke-width="1" opacity=".035"/><line x1="0" y1="72" x2="512" y2="72" stroke="#ffffff" stroke-width="1" opacity=".035"/><line x1="0" y1="78" x2="512" y2="78" stroke="#ffffff" stroke-width="1" opacity=".035"/><line x1="0" y1="84" x2="512" y2="84" stroke="#ffffff" stroke-width="1" opacity=".035"/><line x1="0" y1="90" x2="512" y2="90" stroke="#ffffff" stroke-width="1" opacity=".035"/><line x1="0" y1="96" x2="512" y2="96" stroke="#ffffff" stroke-width="1" opacity=".035"/><line x1="0" y1="102" x2="512" y2="102" stroke="#ffffff" stroke-width="1" opacity=".035"/><line x1="0" y1="108" x2="512" y2="108" stroke="#ffffff" stroke-width="1" opacity=".035"/><line x1="0" y1="114" x2="512" y2="114" stroke="#ffffff" stroke-width="1" opacity=".035"/><line x1="0" y1="120" x2="512" y2="120" stroke="#ffffff" stroke-width="1" opacity=".035"/><line x1="0" y1="126" x2="512" y2="126" stroke="#ffffff" stroke-width="1" opacity=".035"/><line x1="0" y1="132" x2="512" y2="132" stroke="#ffffff" stroke-width="1" opacity=".035"/><line x1="0" y1="138" x2="512" y2="138" stroke="#ffffff" stroke-width="1" opacity=".035"/><line x1="0" y1="144" x2="512" y2="144" stroke="#ffffff" stroke-width="1" opacity=".035"/><line x1="0" y1="150" x2="512" y2="150" stroke="#ffffff" stroke-width="1" opacity=".035"/><line x1="0" y1="156" x2="512" y2="156" stroke="#ffffff" stroke-width="1" opacity=".035"/><line x1="0" y1="162" x2="512" y2="162" stroke="#ffffff" stroke-width="1" opacity=".035"/><line x1="0" y1="168" x2="512" y2="168" stroke="#ffffff" stroke-width="1" opacity=".035"/><line x1="0" y1="174" x2="512" y2="174" stroke="#ffffff" stroke-width="1" opacity=".035"/><line x1="0" y1="180" x2="512" y2="180" stroke="#ffffff" stroke-width="1" opacity=".035"/><line x1="0" y1="186" x2="512" y2="186" stroke="#ffffff" stroke-width="1" opacity=".035"/><line x1="0" y1="192" x2="512" y2="192" stroke="#ffffff" stroke-width="1" opacity=".035"/><line x1="0" y1="198" x2="512" y2="198" stroke="#ffffff" stroke-width="1" opacity=".035"/><line x1="0" y1="204" x2="512" y2="204" stroke="#ffffff" stroke-width="1" opacity=".035"/><line x1="0" y1="210" x2="512" y2="210" stroke="#ffffff" stroke-width="1" opacity=".035"/><line x1="0" y1="216" x2="512" y2="216" stroke="#ffffff" stroke-width="1" opacity=".035"/><line x1="0" y1="222" x2="512" y2="222" stroke="#ffffff" stroke-width="1" opacity=".035"/><line x1="0" y1="228" x2="512" y2="228" stroke="#ffffff" stroke-width="1" opacity=".035"/><line x1="0" y1="234" x2="512" y2="234" stroke="#ffffff" stroke-width="1" opacity=".035"/><line x1="0" y1="240" x2="512" y2="240" stroke="#ffffff" stroke-width="1" opacity=".035"/><line x1="0" y1="246" x2="512" y2="246" stroke="#ffffff" stroke-width="1" opacity=".035"/><line x1="0" y1="252" x2="512" y2="252" stroke="#ffffff" stroke-width="1" opacity=".035"/><line x1="0" y1="258" x2="512" y2="258" stroke="#ffffff" stroke-width="1" opacity=".035"/><line x1="0" y1="264" x2="512" y2="264" stroke="#ffffff" stroke-width="1" opacity=".035"/><line x1="0" y1="270" x2="512" y2="270" stroke="#ffffff" stroke-width="1" opacity=".035"/><line x1="0" y1="276" x2="512" y2="276" stroke="#ffffff" stroke-width="1" opacity=".035"/><line x1="0" y1="282" x2="512" y2="282" stroke="#ffffff" stroke-width="1" opacity=".035"/><line x1="0" y1="288" x2="512" y2="288" stroke="#ffffff" stroke-width="1" opacity=".035"/><line x1="0" y1="294" x2="512" y2="294" stroke="#ffffff" stroke-width="1" opacity=".035"/><line x1="0" y1="300" x2="512" y2="300" stroke="#ffffff" stroke-width="1" opacity=".035"/><line x1="0" y1="306" x2="512" y2="306" stroke="#ffffff" stroke-width="1" opacity=".035"/><line x1="0" y1="312" x2="512" y2="312" stroke="#ffffff" stroke-width="1" opacity=".035"/><line x1="0" y1="318" x2="512" y2="318" stroke="#ffffff" stroke-width="1" opacity=".035"/><line x1="0" y1="324" x2="512" y2="324" stroke="#ffffff" stroke-width="1" opacity=".035"/><line x1="0" y1="330" x2="512" y2="330" stroke="#ffffff" stroke-width="1" opacity=".035"/><line x1="0" y1="336" x2="512" y2="336" stroke="#ffffff" stroke-width="1" opacity=".035"/><line x1="0" y1="342" x2="512" y2="342" stroke="#ffffff" stroke-width="1" opacity=".035"/><line x1="0" y1="348" x2="512" y2="348" stroke="#ffffff" stroke-width="1" opacity=".035"/><line x1="0" y1="354" x2="512" y2="354" stroke="#ffffff" stroke-width="1" opacity=".035"/><line x1="0" y1="360" x2="512" y2="360" stroke="#ffffff" stroke-width="1" opacity=".035"/><line x1="0" y1="366" x2="512" y2="366" stroke="#ffffff" stroke-width="1" opacity=".035"/><line x1="0" y1="372" x2="512" y2="372" stroke="#ffffff" stroke-width="1" opacity=".035"/><line x1="0" y1="378" x2="512" y2="378" stroke="#ffffff" stroke-width="1" opacity=".035"/><line x1="0" y1="384" x2="512" y2="384" stroke="#ffffff" stroke-width="1" opacity=".035"/><line x1="0" y1="390" x2="512" y2="390" stroke="#ffffff" stroke-width="1" opacity=".035"/><line x1="0" y1="396" x2="512" y2="396" stroke="#ffffff" stroke-width="1" opacity=".035"/><line x1="0" y1="402" x2="512" y2="402" stroke="#ffffff" stroke-width="1" opacity=".035"/><line x1="0" y1="408" x2="512" y2="408" stroke="#ffffff" stroke-width="1" opacity=".035"/><line x1="0" y1="414" x2="512" y2="414" stroke="#ffffff" stroke-width="1" opacity=".035"/><line x1="0" y1="420" x2="512" y2="420" stroke="#ffffff" stroke-width="1" opacity=".035"/><line x1="0" y1="426" x2="512" y2="426" stroke="#ffffff" stroke-width="1" opacity=".035"/><line x1="0" y1="432" x2="512" y2="432" stroke="#ffffff" stroke-width="1" opacity=".035"/><line x1="0" y1="438" x2="512" y2="438" stroke="#ffffff" stroke-width="1" opacity=".035"/><line x1="0" y1="444" x2="512" y2="444" stroke="#ffffff" stroke-width="1" opacity=".035"/><line x1="0" y1="450" x2="512" y2="450" stroke="#ffffff" stroke-width="1" opacity=".035"/><line x1="0" y1="456" x2="512" y2="456" stroke="#ffffff" stroke-width="1" opacity=".035"/><line x1="0" y1="462" x2="512" y2="462" stroke="#ffffff" stroke-width="1" opacity=".035"/><line x1="0" y1="468" x2="512" y2="468" stroke="#ffffff" stroke-width="1" opacity=".035"/><line x1="0" y1="474" x2="512" y2="474" stroke="#ffffff" stroke-width="1" opacity=".035"/><line x1="0" y1="480" x2="512" y2="480" stroke="#ffffff" stroke-width="1" opacity=".035"/><line x1="0" y1="486" x2="512" y2="486" stroke="#ffffff" stroke-width="1" opacity=".035"/><line x1="0" y1="492" x2="512" y2="492" stroke="#ffffff" stroke-width="1" opacity=".035"/><line x1="0" y1="498" x2="512" y2="498" stroke="#ffffff" stroke-width="1" opacity=".035"/><line x1="0" y1="504" x2="512" y2="504" stroke="#ffffff" stroke-width="1" opacity=".035"/><line x1="0" y1="510" x2="512" y2="510" stroke="#ffffff" stroke-width="1" opacity=".035"/></g>
<line x1="219.6" y1="210.6" x2="212.5" y2="236.0" stroke="#9fb6c8" stroke-width="1.4" opacity="0.10"/><line x1="488.8" y1="15.7" x2="478.2" y2="53.3" stroke="#9fb6c8" stroke-width="1.4" opacity="0.10"/><line x1="19.2" y1="84.7" x2="6.1" y2="131.7" stroke="#9fb6c8" stroke-width="1.4" opacity="0.21"/><line x1="131.3" y1="59.7" x2="125.3" y2="81.0" stroke="#9fb6c8" stroke-width="1.4" opacity="0.16"/><line x1="382.2" y1="303.4" x2="368.3" y2="352.8" stroke="#9fb6c8" stroke-width="1.4" opacity="0.11"/><line x1="152.6" y1="65.8" x2="143.1" y2="99.8" stroke="#9fb6c8" stroke-width="1.4" opacity="0.20"/><line x1="74.1" y1="-35.5" x2="63.7" y2="1.9" stroke="#9fb6c8" stroke-width="1.4" opacity="0.06"/><line x1="39.2" y1="272.3" x2="23.8" y2="327.3" stroke="#9fb6c8" stroke-width="1.4" opacity="0.22"/><line x1="311.7" y1="92.8" x2="297.6" y2="143.1" stroke="#9fb6c8" stroke-width="1.4" opacity="0.09"/><line x1="283.7" y1="213.7" x2="272.2" y2="254.8" stroke="#9fb6c8" stroke-width="1.4" opacity="0.21"/><line x1="306.8" y1="8.6" x2="292.4" y2="60.1" stroke="#9fb6c8" stroke-width="1.4" opacity="0.12"/><line x1="11.0" y1="210.7" x2="-5.1" y2="268.2" stroke="#9fb6c8" stroke-width="1.4" opacity="0.15"/><line x1="306.5" y1="174.3" x2="291.6" y2="227.4" stroke="#9fb6c8" stroke-width="1.4" opacity="0.20"/><line x1="214.4" y1="16.9" x2="197.6" y2="76.5" stroke="#9fb6c8" stroke-width="1.4" opacity="0.09"/><line x1="40.8" y1="196.5" x2="33.0" y2="224.3" stroke="#9fb6c8" stroke-width="1.4" opacity="0.17"/><line x1="250.7" y1="25.2" x2="243.8" y2="50.0" stroke="#9fb6c8" stroke-width="1.4" opacity="0.16"/><line x1="-18.6" y1="328.1" x2="-28.4" y2="362.9" stroke="#9fb6c8" stroke-width="1.4" opacity="0.10"/><line x1="183.8" y1="356.8" x2="168.4" y2="412.0" stroke="#9fb6c8" stroke-width="1.4" opacity="0.12"/><line x1="510.7" y1="334.8" x2="503.9" y2="359.0" stroke="#9fb6c8" stroke-width="1.4" opacity="0.21"/><line x1="54.3" y1="163.1" x2="41.0" y2="210.6" stroke="#9fb6c8" stroke-width="1.4" opacity="0.13"/><line x1="449.4" y1="417.6" x2="442.7" y2="441.6" stroke="#9fb6c8" stroke-width="1.4" opacity="0.10"/><line x1="288.4" y1="443.4" x2="283.2" y2="461.8" stroke="#9fb6c8" stroke-width="1.4" opacity="0.10"/><line x1="295.2" y1="136.2" x2="286.7" y2="166.5" stroke="#9fb6c8" stroke-width="1.4" opacity="0.08"/><line x1="292.8" y1="227.8" x2="286.3" y2="251.0" stroke="#9fb6c8" stroke-width="1.4" opacity="0.22"/><line x1="4.8" y1="135.0" x2="-2.8" y2="162.1" stroke="#9fb6c8" stroke-width="1.4" opacity="0.16"/><line x1="372.8" y1="208.2" x2="359.9" y2="254.3" stroke="#9fb6c8" stroke-width="1.4" opacity="0.16"/><line x1="26.6" y1="488.3" x2="15.6" y2="527.4" stroke="#9fb6c8" stroke-width="1.4" opacity="0.18"/><line x1="186.5" y1="147.7" x2="180.4" y2="169.5" stroke="#9fb6c8" stroke-width="1.4" opacity="0.16"/><line x1="446.5" y1="425.4" x2="438.3" y2="454.7" stroke="#9fb6c8" stroke-width="1.4" opacity="0.06"/><line x1="81.0" y1="169.9" x2="74.9" y2="191.5" stroke="#9fb6c8" stroke-width="1.4" opacity="0.08"/><line x1="528.9" y1="399.1" x2="512.3" y2="458.2" stroke="#9fb6c8" stroke-width="1.4" opacity="0.12"/><line x1="186.8" y1="396.0" x2="180.5" y2="418.6" stroke="#9fb6c8" stroke-width="1.4" opacity="0.14"/><line x1="83.3" y1="407.5" x2="73.9" y2="441.3" stroke="#9fb6c8" stroke-width="1.4" opacity="0.18"/><line x1="427.3" y1="344.0" x2="414.5" y2="389.5" stroke="#9fb6c8" stroke-width="1.4" opacity="0.22"/>
<ellipse cx="256" cy="330" rx="150" ry="22" fill="#32c7d6" opacity=".08"/>
</g>
<circle cx="256" cy="236" r="208" fill="none" stroke="#32c7d6" stroke-width="6" filter="url(#glow)"/><circle cx="256" cy="236" r="190" fill="none" stroke="#32c7d6" stroke-width="1.5" opacity=".5"/><line x1="256.0" y1="40.0" x2="256.0" y2="54.0" stroke="#32c7d6" stroke-width="2" opacity=".55"/><line x1="276.5" y1="41.1" x2="277.3" y2="33.1" stroke="#32c7d6" stroke-width="2" opacity=".55"/><line x1="296.8" y1="44.3" x2="298.4" y2="36.5" stroke="#32c7d6" stroke-width="2" opacity=".55"/><line x1="316.6" y1="49.6" x2="312.2" y2="62.9" stroke="#32c7d6" stroke-width="2" opacity=".55"/><line x1="335.7" y1="56.9" x2="339.0" y2="49.6" stroke="#32c7d6" stroke-width="2" opacity=".55"/><line x1="354.0" y1="66.3" x2="358.0" y2="59.3" stroke="#32c7d6" stroke-width="2" opacity=".55"/><line x1="371.2" y1="77.4" x2="363.0" y2="88.8" stroke="#32c7d6" stroke-width="2" opacity=".55"/><line x1="387.1" y1="90.3" x2="392.5" y2="84.4" stroke="#32c7d6" stroke-width="2" opacity=".55"/><line x1="401.7" y1="104.9" x2="407.6" y2="99.5" stroke="#32c7d6" stroke-width="2" opacity=".55"/><line x1="414.6" y1="120.8" x2="403.2" y2="129.0" stroke="#32c7d6" stroke-width="2" opacity=".55"/><line x1="425.7" y1="138.0" x2="432.7" y2="134.0" stroke="#32c7d6" stroke-width="2" opacity=".55"/><line x1="435.1" y1="156.3" x2="442.4" y2="153.0" stroke="#32c7d6" stroke-width="2" opacity=".55"/><line x1="435.1" y1="315.7" x2="442.4" y2="319.0" stroke="#32c7d6" stroke-width="2" opacity=".55"/><line x1="425.7" y1="334.0" x2="432.7" y2="338.0" stroke="#32c7d6" stroke-width="2" opacity=".55"/><line x1="414.6" y1="351.2" x2="403.2" y2="343.0" stroke="#32c7d6" stroke-width="2" opacity=".55"/><line x1="401.7" y1="367.1" x2="407.6" y2="372.5" stroke="#32c7d6" stroke-width="2" opacity=".55"/><line x1="387.1" y1="381.7" x2="392.5" y2="387.6" stroke="#32c7d6" stroke-width="2" opacity=".55"/><line x1="371.2" y1="394.6" x2="363.0" y2="383.2" stroke="#32c7d6" stroke-width="2" opacity=".55"/><line x1="354.0" y1="405.7" x2="358.0" y2="412.7" stroke="#32c7d6" stroke-width="2" opacity=".55"/><line x1="335.7" y1="415.1" x2="339.0" y2="422.4" stroke="#32c7d6" stroke-width="2" opacity=".55"/><line x1="316.6" y1="422.4" x2="312.2" y2="409.1" stroke="#32c7d6" stroke-width="2" opacity=".55"/><line x1="296.8" y1="427.7" x2="298.4" y2="435.5" stroke="#32c7d6" stroke-width="2" opacity=".55"/><line x1="276.5" y1="430.9" x2="277.3" y2="438.9" stroke="#32c7d6" stroke-width="2" opacity=".55"/><line x1="256.0" y1="432.0" x2="256.0" y2="418.0" stroke="#32c7d6" stroke-width="2" opacity=".55"/><line x1="235.5" y1="430.9" x2="234.7" y2="438.9" stroke="#32c7d6" stroke-width="2" opacity=".55"/><line x1="215.2" y1="427.7" x2="213.6" y2="435.5" stroke="#32c7d6" stroke-width="2" opacity=".55"/><line x1="195.4" y1="422.4" x2="199.8" y2="409.1" stroke="#32c7d6" stroke-width="2" opacity=".55"/><line x1="176.3" y1="415.1" x2="173.0" y2="422.4" stroke="#32c7d6" stroke-width="2" opacity=".55"/><line x1="158.0" y1="405.7" x2="154.0" y2="412.7" stroke="#32c7d6" stroke-width="2" opacity=".55"/><line x1="140.8" y1="394.6" x2="149.0" y2="383.2" stroke="#32c7d6" stroke-width="2" opacity=".55"/><line x1="124.9" y1="381.7" x2="119.5" y2="387.6" stroke="#32c7d6" stroke-width="2" opacity=".55"/><line x1="110.3" y1="367.1" x2="104.4" y2="372.5" stroke="#32c7d6" stroke-width="2" opacity=".55"/><line x1="97.4" y1="351.2" x2="108.8" y2="343.0" stroke="#32c7d6" stroke-width="2" opacity=".55"/><line x1="86.3" y1="334.0" x2="79.3" y2="338.0" stroke="#32c7d6" stroke-width="2" opacity=".55"/><line x1="76.9" y1="315.7" x2="69.6" y2="319.0" stroke="#32c7d6" stroke-width="2" opacity=".55"/><line x1="69.6" y1="296.6" x2="82.9" y2="292.2" stroke="#32c7d6" stroke-width="2" opacity=".55"/><line x1="64.3" y1="276.8" x2="56.5" y2="278.4" stroke="#32c7d6" stroke-width="2" opacity=".55"/><line x1="61.1" y1="256.5" x2="53.1" y2="257.3" stroke="#32c7d6" stroke-width="2" opacity=".55"/><line x1="60.0" y1="236.0" x2="74.0" y2="236.0" stroke="#32c7d6" stroke-width="2" opacity=".55"/><line x1="61.1" y1="215.5" x2="53.1" y2="214.7" stroke="#32c7d6" stroke-width="2" opacity=".55"/><line x1="64.3" y1="195.2" x2="56.5" y2="193.6" stroke="#32c7d6" stroke-width="2" opacity=".55"/><line x1="69.6" y1="175.4" x2="82.9" y2="179.8" stroke="#32c7d6" stroke-width="2" opacity=".55"/><line x1="76.9" y1="156.3" x2="69.6" y2="153.0" stroke="#32c7d6" stroke-width="2" opacity=".55"/><line x1="86.3" y1="138.0" x2="79.3" y2="134.0" stroke="#32c7d6" stroke-width="2" opacity=".55"/><line x1="97.4" y1="120.8" x2="108.8" y2="129.0" stroke="#32c7d6" stroke-width="2" opacity=".55"/><line x1="110.3" y1="104.9" x2="104.4" y2="99.5" stroke="#32c7d6" stroke-width="2" opacity=".55"/><line x1="124.9" y1="90.3" x2="119.5" y2="84.4" stroke="#32c7d6" stroke-width="2" opacity=".55"/><line x1="140.8" y1="77.4" x2="149.0" y2="88.8" stroke="#32c7d6" stroke-width="2" opacity=".55"/><line x1="158.0" y1="66.3" x2="154.0" y2="59.3" stroke="#32c7d6" stroke-width="2" opacity=".55"/><line x1="176.3" y1="56.9" x2="173.0" y2="49.6" stroke="#32c7d6" stroke-width="2" opacity=".55"/><line x1="195.4" y1="49.6" x2="199.8" y2="62.9" stroke="#32c7d6" stroke-width="2" opacity=".55"/><line x1="215.2" y1="44.3" x2="213.6" y2="36.5" stroke="#32c7d6" stroke-width="2" opacity=".55"/><line x1="235.5" y1="41.1" x2="234.7" y2="33.1" stroke="#32c7d6" stroke-width="2" opacity=".55"/>

<g transform="translate(256 226) scale(1.68)" filter="url(#soft)"><rect class="g" x="-70" y="-18" width="140" height="36" rx="16"/><rect class="g" x="-82" y="-24" width="22" height="48" rx="6"/><rect class="g" x="60" y="-24" width="22" height="48" rx="6"/><rect class="g" x="-18" y="-36" width="36" height="18" rx="4"/><line class="s" x1="-60" y1="40" x2="60" y2="40"/><path class="s" d="M50,32 L60,40 L50,48"/></g>
<g>
<path d="M66,402 L446,402 L462,424 L446,446 L66,446 L50,424 Z" fill="#07080c" stroke="#32c7d6" stroke-width="3"/>
<text x="256" y="435" text-anchor="middle" font-family="Bebas Neue, Oswald, Impact, 'Arial Narrow', sans-serif" font-size="31" letter-spacing="2" fill="#f1ede4">SCOPE, LONGSHOT</text>
</g>
<text x="256" y="472" text-anchor="middle" font-family="Courier New, monospace" font-size="13" letter-spacing="4" fill="#32c7d6" opacity=".8">MOD-009 // BAY CITY</text>
</svg>